<svg xmlns="http://www.w3.org/2000/svg" width="1655.89" height="395.802" viewBox="0 0 1655.89 395.802">
  <g id="Group_1645" data-name="Group 1645" transform="translate(-99.502 -83.266)">
    <g id="Group_1316" data-name="Group 1316" transform="translate(99.502 391.178)">
      <path id="Path_316" data-name="Path 316" d="M344.662,1324.064a43.945,43.945,0,1,1,43.947-43.942A43.993,43.993,0,0,1,344.662,1324.064Zm0-76.743a32.8,32.8,0,1,0,32.8,32.8A32.837,32.837,0,0,0,344.662,1247.321Z" transform="translate(-300.72 -1236.175)" fill="#fff"/>
    </g>
    <g id="Group_1329" data-name="Group 1329" transform="translate(1667.502 83.266)">
      <path id="Path_316-2" data-name="Path 316" d="M344.662,1324.064a43.945,43.945,0,1,1,43.947-43.942A43.993,43.993,0,0,1,344.662,1324.064Zm0-76.743a32.8,32.8,0,1,0,32.8,32.8A32.837,32.837,0,0,0,344.662,1247.321Z" transform="translate(-300.72 -1236.175)" fill="#fff"/>
    </g>
  </g>
</svg>
