<svg xmlns="http://www.w3.org/2000/svg" width="1050.64" height="270.474" viewBox="0 0 1050.64 270.474">
  <g id="Group_1647" data-name="Group 1647" transform="translate(-10.812 -59.634)">
    <path id="Path_241" data-name="Path 241" d="M294.742,827.14a19.787,19.787,0,0,0-24.259-14.695,29.129,29.129,0,0,0-35.025-15.472,35.882,35.882,0,0,0-64.451,6.269,24.614,24.614,0,0,0-36.581,21.51c0,.806.041,1.6.117,2.388Z" transform="translate(-123.614 -564.149)" fill="#fff" opacity="0.8"/>
    <path id="Path_302" data-name="Path 302" d="M680.378,644.518A14.163,14.163,0,0,0,663.014,634a20.849,20.849,0,0,0-25.07-11.075,25.683,25.683,0,0,0-46.133,4.487,17.618,17.618,0,0,0-26.184,15.4c0,.577.03,1.147.084,1.71Z" transform="translate(-324.841 -485.228)" fill="#fff" opacity="0.8"/>
    <path id="Path_303" data-name="Path 303" d="M1165.87,515.091a11.52,11.52,0,0,0-14.123-8.555,16.959,16.959,0,0,0-20.39-9.007,20.889,20.889,0,0,0-37.521,3.649,14.329,14.329,0,0,0-21.3,12.522c0,.469.024.933.068,1.39Z" transform="translate(-561.402 -427.792)" fill="#fff" opacity="0.8"/>
    <path id="Path_307" data-name="Path 307" d="M1915.911,887.376a53.137,53.137,0,0,0-95.445,9.284,36.45,36.45,0,0,0-54.172,31.854c0,1.194.062,2.372.174,3.537h179.366C1938.749,916.166,1917.452,886.9,1915.911,887.376Z" transform="translate(-885.152 -602.443)" fill="#fff" stroke="rgba(0,0,0,0)" stroke-width="1" opacity="0.8"/>
  </g>
</svg>
