<svg xmlns="http://www.w3.org/2000/svg" width="1068.429" height="653.202" viewBox="0 0 1068.429 653.202">
  <g id="Group_1648" data-name="Group 1648" transform="translate(0 -92.091)">
    <path id="Path_206" data-name="Path 206" d="M1866.224,1235.813h0c-7.022.885-17.721,15.183-18.982,16.623-.711.812-1.445,1.652-2.206,2.559l4.656,5.766-7.7-1.89a80.948,80.948,0,0,0-14.382,61.785c.5,2.782,1.115,5.337,1.707,7.808.938,3.919,1.824,7.621,1.683,10.148-.261,4.691-4.353,10.749-8.685,17.164-6.194,9.17-13.9,20.582-14.971,35.163-.792,10.8,2.341,20.391,4.86,28.1,1.719,5.263,3.343,10.235,3.139,13.752-.225,3.861-2.828,8.966-5.587,14.37a134.268,134.268,0,0,0-5.729,12.282,75.724,75.724,0,0,0,.682,56.25l34.256-14.328a38.808,38.808,0,0,1-.346-28.429c1.068-2.738,2.595-5.73,4.211-8.9,3.967-7.774,8.9-17.45,9.581-29.093.611-10.527-2.323-19.51-4.913-27.435-1.739-5.321-3.38-10.347-3.123-13.851.346-4.714,4.409-10.729,8.71-17.1,5.565-8.24,12.328-18.261,14.413-30.751-6.711,2.81-18.154,7.687-19.72,8.912-1.672,1.307,12.9-10.67,20.363-16.8-.025-6.848-1.5-13.021-2.714-18.1-.5-2.068-.963-4.022-1.283-5.788a43.906,43.906,0,0,1,9.21-35.021c.54-.649,1.161-1.358,1.818-2.109a53.732,53.732,0,0,0,9.155-13.147,38.291,38.291,0,0,0,1.7-4.375C1890.075,1246.71,1879.423,1234.151,1866.224,1235.813Z" transform="translate(-900.389 -776.97)" fill="#769ad0"/>
    <path id="Path_207" data-name="Path 207" d="M1935.872,1342.936h0c-5.91-1.341-18.7,7.041-20.138,7.83-.894.492-1.817,1-2.8,1.572a67.937,67.937,0,0,0-16.287,13.348l5.76,14.167-9.17-10.055a68.81,68.81,0,0,0-13.255,30.139c-.408,2.386-.663,4.621-.909,6.783-.39,3.429-.76,6.667-1.612,8.661-1.581,3.7-6.646,7.379-12.009,11.276-7.666,5.57-17.2,12.5-22.329,23.925-3.795,8.461-4.077,17.1-4.3,24.038-.155,4.739-.3,9.214-1.494,11.987-1.309,3.042-4.9,6.39-8.7,9.933a115.294,115.294,0,0,0-8.2,8.211,64.843,64.843,0,0,0-15.894,45.475l31.76-1.518a33.237,33.237,0,0,1,8.034-22.985c1.66-1.892,3.764-3.853,5.99-5.93,5.466-5.1,12.269-11.443,16.217-20.616,3.57-8.295,3.834-16.383,4.067-23.519.157-4.792.3-9.317,1.536-12.062,1.656-3.693,6.685-7.347,12.009-11.216,7.808-5.674,17.525-12.736,22.554-24.5.316-.738.6-1.475.866-2.209h-13.895l15.579-5.953a93.535,93.535,0,0,0,1.417-9.4c.206-1.809.4-3.518.659-5.033a37.6,37.6,0,0,1,17.652-25.5c.624-.365,1.331-.754,2.079-1.166a46,46,0,0,0,11.213-7.906,32.7,32.7,0,0,0,2.646-3.024c.285-.367.541-.745.786-1.125l-11.676-3,14.032-3.72A15.756,15.756,0,0,0,1935.872,1342.936Z" transform="translate(-902.965 -826.963)" fill="#1e5ab3"/>
    <path id="Path_208" data-name="Path 208" d="M1965.338,1484.81h0c-4.239-1.929-15.169,2.388-16.373,2.758-.749.231-1.523.47-2.349.748a53.21,53.21,0,0,0-32.205,30.692c-.678,1.732-1.218,3.375-1.739,4.964a27.476,27.476,0,0,1-2.561,6.266c-1.765,2.538-6.149,4.519-10.792,6.617-6.636,3-14.893,6.732-20.526,14.53-4.173,5.777-5.729,12.232-6.98,17.419-.854,3.543-1.66,6.888-2.989,8.789-1.459,2.085-4.68,4.046-8.091,6.122a88.311,88.311,0,0,0-7.45,4.9,49.83,49.83,0,0,0-19.039,31.748l24.138,3.8a25.537,25.537,0,0,1,9.622-16.046c1.544-1.165,3.432-2.314,5.431-3.531,4.906-2.986,11.013-6.7,15.412-12.991,3.977-5.686,5.435-11.732,6.72-17.066.864-3.582,1.678-6.965,3.032-8.838,1.821-2.521,6.174-4.489,10.783-6.571,6.758-3.055,15.17-6.857,20.785-14.929a34.415,34.415,0,0,0,3.222-5.823l-8.46-3.254,10.529-2.227c.147-.441.29-.872.427-1.291.437-1.33.849-2.586,1.28-3.686a28.893,28.893,0,0,1,17.251-16.44c.527-.177,1.119-.36,1.747-.553a35.376,35.376,0,0,0,9.669-4.2,25.29,25.29,0,0,0,2.462-1.865A12.035,12.035,0,0,0,1965.338,1484.81Z" transform="translate(-916.862 -893.008)" fill="#5783c6"/>
    <path id="Path_209" data-name="Path 209" d="M1303.977,1630.736s-63.54-54.579-131.968-16.292c0,0,0-69.243-50.507-76.574s-95.31,32.584-83.906,75.76c0,0-105.086-20.366-124.637,29.326l391.018,3.259Z" transform="translate(-486.93 -917.591)" fill="#1e5ab3"/>
    <path id="Path_210" data-name="Path 210" d="M1686.748,1677.289c-39.494-75.2-111.99-41.117-111.99-41.117s-12.444-69.251-104.958-49.233c0,0-38.953,11.362-44.363,58.971,0,0-54.1-19.476-64.381,34.084Z" transform="translate(-696.041 -939.203)" fill="#7a9dd2"/>
    <path id="Path_211" data-name="Path 211" d="M672.634,852.224s-8.114,4.589-10.552,11.079c-2.082,5.541-11.36,4.57-17.162,11.975-6.444,8.225-15.607,20.524,5.409,28.819,13.054,5.152,33.841,9.117,38.554,5.64s15.948-2.085,13.421-38.63c0,0-30.728-12.826-31.037-12.9S672.634,852.224,672.634,852.224Z" transform="translate(-358.279 -598.031)" fill="#141414"/>
    <path id="Path_212" data-name="Path 212" d="M726.16,864.9a18.9,18.9,0,1,1-18.9-18.9A18.9,18.9,0,0,1,726.16,864.9Z" transform="translate(-382.114 -595.125)" fill="#141414"/>
    <path id="Path_213" data-name="Path 213" d="M801.614,981.771l-1.379.646c-5.876,1.411-39.373,9.391-40.919,8.37-1.695-1.119-9.266-16.747-9.266-16.747l-8.6,14s7.766,14.714,12.82,17.042c4.932,2.273,39.659-10.34,49.442-16.284l.989-.439c.953.2,3.45.555,3.45.555,9.982,1.131,8.956,1.191,9.036.8s-3.952-2.129-3.715-2.5,6.106.02,5.827-.475-5.689-1.578-5.585-1.925,5.766.126,5.747-.7-6.229-1.12-6-1.773,6.594-.179,6.464-.938c-.109-.638-7.222-1.356-9.483-1.569a.422.422,0,0,1-.283-.649c2.61-3.855,2.6-4.332,2.131-4.568-.333-.168-3.614,2.314-6.813,4.439Z" transform="translate(-406.894 -654.879)" fill="#f7c7a6"/>
    <g id="Group_1290" data-name="Group 1290" transform="translate(220.913 381.958)">
      <path id="Rectangle_187" data-name="Rectangle 187" d="M30.125,0H215.859a30.126,30.126,0,0,1,30.126,30.126V313.994a30.126,30.126,0,0,1-30.126,30.126H30.126A30.126,30.126,0,0,1,0,313.994V30.125A30.125,30.125,0,0,1,30.125,0Z" transform="translate(0 10.666)" fill="#5783c6"/>
      <rect id="Rectangle_188" data-name="Rectangle 188" width="209.76" height="293.444" transform="translate(18.113 27.107)" fill="#f2f5fa"/>
      <path id="Rectangle_189" data-name="Rectangle 189" d="M34.669,0H78.905a34.67,34.67,0,0,1,34.67,34.67v0a0,0,0,0,1,0,0H0a0,0,0,0,1,0,0v0A34.669,34.669,0,0,1,34.669,0Z" transform="translate(61.742)" fill="#b2ccf4"/>
      <rect id="Rectangle_190" data-name="Rectangle 190" width="110.33" height="8.19" transform="translate(33.464 60.888)" fill="#e0e8f4"/>
      <rect id="Rectangle_191" data-name="Rectangle 191" width="110.33" height="8.19" transform="translate(33.464 90.953)" fill="#e0e8f4"/>
      <rect id="Rectangle_192" data-name="Rectangle 192" width="110.33" height="8.19" transform="translate(33.464 121.017)" fill="#e0e8f4"/>
      <rect id="Rectangle_193" data-name="Rectangle 193" width="110.33" height="8.19" transform="translate(33.464 151.082)" fill="#e0e8f4"/>
      <rect id="Rectangle_194" data-name="Rectangle 194" width="110.33" height="8.19" transform="translate(33.464 181.147)" fill="#e0e8f4"/>
      <rect id="Rectangle_195" data-name="Rectangle 195" width="110.33" height="8.19" transform="translate(33.464 211.211)" fill="#e0e8f4"/>
      <rect id="Rectangle_196" data-name="Rectangle 196" width="110.33" height="8.19" transform="translate(33.464 241.276)" fill="#e0e8f4"/>
      <rect id="Rectangle_197" data-name="Rectangle 197" width="110.33" height="8.19" transform="translate(33.464 271.341)" fill="#e0e8f4"/>
      <rect id="Rectangle_198" data-name="Rectangle 198" width="62.582" height="60.06" transform="translate(168.698 60.888)" fill="#e0e8f4"/>
      <rect id="Rectangle_199" data-name="Rectangle 199" width="62.582" height="60.061" transform="translate(168.698 140.179)" fill="#e0e8f4"/>
      <rect id="Rectangle_200" data-name="Rectangle 200" width="62.582" height="60.06" transform="translate(168.698 219.47)" fill="#e0e8f4"/>
    </g>
    <path id="Path_214" data-name="Path 214" d="M819.336,1230.225l-.489,11.844-10.287-3.956,1.369-8.522Z" transform="translate(-438.21 -774.136)" fill="#f7c7a6"/>
    <g id="Group_1294" data-name="Group 1294" transform="translate(364.824 462.728)">
      <path id="Path_215" data-name="Path 215" d="M823.042,1271.1l-23.88-7.945a1.408,1.408,0,0,1-.891-1.781h0a1.408,1.408,0,0,1,1.78-.892l23.88,7.945a1.408,1.408,0,0,1,.892,1.781h0A1.408,1.408,0,0,1,823.042,1271.1Z" transform="translate(-798.199 -1251.246)" fill="#1e5ab3"/>
      <path id="Path_216" data-name="Path 216" d="M803.4,1244.306l-3.353,7.14c-.413.88-.177,1.882.5,2.106l23.4,7.786a1.8,1.8,0,0,0,1.891-.584c.571-.622,1-1.7.448-3.531-1.1-3.62-7.615-6.609-10.2-10.206a.423.423,0,0,0-.211-.157l-10.767-3.583A1.522,1.522,0,0,0,803.4,1244.306Z" transform="translate(-798.966 -1243.228)" fill="#6890cc"/>
      <g id="Group_1291" data-name="Group 1291" transform="translate(13.863 4.875)">
        <path id="Path_217" data-name="Path 217" d="M824.274,1254.935h0a.53.53,0,0,1,.069-.651c.8-.865,3.059-2.866,5.811-1.385a.44.44,0,0,1,.093.57l0,.007c-.1.215-.3.31-.457.229-2.47-1.319-4.418.46-5.074,1.19A.279.279,0,0,1,824.274,1254.935Z" transform="translate(-824.191 -1252.369)" fill="#fff"/>
      </g>
      <g id="Group_1292" data-name="Group 1292" transform="translate(15.974 6.64)">
        <path id="Path_218" data-name="Path 218" d="M828.234,1258.244h0a.529.529,0,0,1,.068-.65c.8-.866,3.059-2.866,5.811-1.385a.44.44,0,0,1,.093.569l0,.008c-.1.214-.3.31-.457.229-2.47-1.318-4.418.46-5.073,1.19A.279.279,0,0,1,828.234,1258.244Z" transform="translate(-828.151 -1255.678)" fill="#fff"/>
      </g>
      <g id="Group_1293" data-name="Group 1293" transform="translate(17.937 8.284)">
        <path id="Path_219" data-name="Path 219" d="M831.914,1261.327h0a.529.529,0,0,1,.069-.65c.8-.866,3.059-2.867,5.811-1.385a.44.44,0,0,1,.093.569l0,.007c-.1.214-.3.311-.457.229-2.47-1.318-4.418.461-5.074,1.191A.279.279,0,0,1,831.914,1261.327Z" transform="translate(-831.831 -1258.761)" fill="#fff"/>
      </g>
    </g>
    <path id="Path_220" data-name="Path 220" d="M682.061,1070.805s-4.8,22.59,16.98,27.955,49.27,5.909,49.27,5.909l.508,52.62,11.466,1.314s34.211-70.909-6.065-84.874l-36.852-2.145-15.1-2.042s-15.111-4.761-15.337-4.051S682.4,1071.189,682.061,1070.805Z" transform="translate(-378.967 -697.523)" fill="#1e5ab3"/>
    <path id="Path_221" data-name="Path 221" d="M710.454,933.287s-13.43-3.005-20.4-2.77,2.5,18.568,2.5,18.568l11.378.252s6.939-4.624,7.953-4.563c3.836.23.844-10.806.844-10.806Z" transform="translate(-381.715 -634.562)" fill="#f7c7a6"/>
    <path id="Path_222" data-name="Path 222" d="M701.715,908.617l-4,12.129s3.479,7.193,14.133,4.09c0,0-1.215-2.511.415-7.684C713.933,911.866,701.715,908.617,701.715,908.617Z" transform="translate(-386.484 -624.348)" fill="#f7c7a6"/>
    <path id="Path_223" data-name="Path 223" d="M703.57,908.617l-1.875,5.666c1.117,4.141,4.742,6.961,11.581,7.836a16.431,16.431,0,0,1,.847-4.967C715.788,911.866,703.57,908.617,703.57,908.617Z" transform="translate(-388.34 -624.348)" fill="#f19a5e" opacity="0.6"/>
    <path id="Path_224" data-name="Path 224" d="M750.562,889.755c-.865,1.97-.288,4.127,1.287,4.819s3.554-.344,4.418-2.314.289-4.127-1.287-4.819S751.427,887.785,750.562,889.755Z" transform="translate(-410.957 -614.366)" fill="#f2a36c"/>
    <path id="Path_225" data-name="Path 225" d="M718.7,885.99a16.246,16.246,0,0,0,1.323-2.69,30.834,30.834,0,0,0,1.869-7.609c.063-.508.155-1.011.256-1.512a16.639,16.639,0,1,0-32.94-3.754,3.6,3.6,0,0,0-3.231-.339c-2,.829-2.776,3.525-1.739,6.022s3.5,3.849,5.493,3.02a3.169,3.169,0,0,0,.757-.451c.613,8.166,7.118,14.629,15.125,14.71a14.928,14.928,0,0,0,10.237-3.947,7.348,7.348,0,0,0,.576-.512A14.414,14.414,0,0,0,718.7,885.99Z" transform="translate(-379.981 -598.969)" fill="#f7c7a6"/>
    <path id="Path_226" data-name="Path 226" d="M740.383,886.293a10.205,10.205,0,0,0-.533,2.8,7.843,7.843,0,0,0,.051,1.462,3.706,3.706,0,0,0,.5,1.494l.138.178.124.153a1.459,1.459,0,0,1,.165.209,1.079,1.079,0,0,1,.181.456,1.284,1.284,0,0,1-.318.984,3.943,3.943,0,0,1-2.314,1.163,3.224,3.224,0,0,0,2.827-.676,1.946,1.946,0,0,0,.66-1.55,1.518,1.518,0,0,0-.09-.446,1.728,1.728,0,0,0-.188-.406,2.264,2.264,0,0,0-.261-.346,1.442,1.442,0,0,1-.094-.123l-.076-.1a3.511,3.511,0,0,1-.413-1.135,11.859,11.859,0,0,1-.19-1.33C740.476,888.173,740.44,887.243,740.383,886.293Z" transform="translate(-405.46 -613.93)" fill="#f2a36c"/>
    <path id="Path_227" data-name="Path 227" d="M781.529,1228.109l-5.3,15.177-7.793-7.793,2.814-7.188Z" transform="translate(-419.488 -773.445)" fill="#f7c7a6"/>
    <path id="Path_228" data-name="Path 228" d="M729.034,888.633a1.452,1.452,0,1,1-1.437-1.467A1.452,1.452,0,0,1,729.034,888.633Z" transform="translate(-399.743 -614.338)" fill="#141414"/>
    <path id="Path_229" data-name="Path 229" d="M749.261,889.13a1.453,1.453,0,1,1-1.438-1.467A1.452,1.452,0,0,1,749.261,889.13Z" transform="translate(-409.182 -614.57)" fill="#141414"/>
    <path id="Path_230" data-name="Path 230" d="M731.173,907.833a4.645,4.645,0,0,1,3.835.51s2.01-1.258,3.594-.057a3.818,3.818,0,0,1-4.037,2.791A3.413,3.413,0,0,1,731.173,907.833Z" transform="translate(-402.096 -623.887)" fill="#f2a36c" opacity="0.3" style="mix-blend-mode: multiply;isolation: isolate"/>
    <path id="Path_231" data-name="Path 231" d="M727.93,906a9.928,9.928,0,0,0,1.172.825,9.827,9.827,0,0,0,1.255.667,8.565,8.565,0,0,0,2.709.725,7.308,7.308,0,0,0,2.774-.307,10.268,10.268,0,0,0,2.544-1.27,8.648,8.648,0,0,1-1.148.881,7.98,7.98,0,0,1-1.3.653,6.778,6.778,0,0,1-1.423.366,7.237,7.237,0,0,1-1.473.039,7.565,7.565,0,0,1-2.8-.835A8.284,8.284,0,0,1,727.93,906Z" transform="translate(-400.583 -623.127)" fill="#f2a36c"/>
    <path id="Path_232" data-name="Path 232" d="M725.586,880.385a14.964,14.964,0,0,0-2.141-.432,7.372,7.372,0,0,0-2.018.03,6.8,6.8,0,0,0-1.92.585c-.331.116-.615.326-.949.48-.321.174-.615.393-.976.566a6.056,6.056,0,0,1,.609-.992,4.943,4.943,0,0,1,.849-.822,4.7,4.7,0,0,1,2.218-.948,4.9,4.9,0,0,1,2.4.23A4.467,4.467,0,0,1,725.586,880.385Z" transform="translate(-395.753 -610.431)" fill="#141414"/>
    <path id="Path_233" data-name="Path 233" d="M745.022,880.747a4.475,4.475,0,0,1,2.077-1.058,4.905,4.905,0,0,1,2.407.064,4.686,4.686,0,0,1,2.085,1.211,4.971,4.971,0,0,1,.742.919c.2.338-.543.016-.416.378-.336-.217.3.213,0,0-.312-.193-.57-.436-.884-.592a6.8,6.8,0,0,0-1.835-.814,7.359,7.359,0,0,0-2-.275A15.044,15.044,0,0,0,745.022,880.747Z" transform="translate(-408.559 -610.793)" fill="#141414"/>
    <path id="Path_234" data-name="Path 234" d="M699.085,990.8s-2.957,8.647-3.495,13.24a60.6,60.6,0,0,0,3.495,27.689c3.311,9.106-24.749,4.048-25.3,3.772s-23.73-9.243-23.73-9.243l-1.747-17.875L645.641,990.8l1.242-10.347Z" transform="translate(-362.181 -657.874)" fill="#5280c4"/>
    <path id="Path_235" data-name="Path 235" d="M614.448,952.707s3.591.312,3.2,6.557-3.306,18.135-3.306,18.135-28.321,54.429-34.529,59.724a1.953,1.953,0,0,1-1.2.462l-19.084-.076a6.786,6.786,0,0,1,2.539-1.573l8.894-2.36a1.322,1.322,0,0,0,.822-.644l2.85-5.2,21.479-57.291c2.191-5.1,7.4-8.021,10.986-12.267C609.715,955.071,612.57,952.4,614.448,952.707Z" transform="translate(-321.995 -644.912)" fill="#f7c7a6"/>
    <g id="Group_1295" data-name="Group 1295" transform="translate(268.973 295.955)">
      <path id="Path_236" data-name="Path 236" d="M680.525,933.979c-.266,5.428-7.866,14.475-7.866,14.475-1.377-3.025-14.645-17.741-14.812-17.925-5.464.085-17.061.893-24.149,5.926-9.52,6.76-15.22,21.945-15.22,21.945S635.724,967.09,640,967.5h47.873a42.528,42.528,0,0,0,14.348-4.139S701.088,940.872,680.525,933.979Z" transform="translate(-618.479 -930.528)" fill="#5280c4"/>
    </g>
    <path id="Path_237" data-name="Path 237" d="M647.667,965.815c-.493,1.476-.93,2.967-1.371,4.458s-.844,2.994-1.24,4.5c-.379,1.508-.762,3.018-1.092,4.54s-.649,3.049-.893,4.594l.365-.366a9.137,9.137,0,0,1-1.581-.011c-.543-.036-1.089-.116-1.632-.194-1.084-.193-2.172-.4-3.24-.7l-.8-.213-.8-.244c-.53-.167-1.064-.319-1.588-.508l-1.579-.546-1.56-.6c-1.044-.392-2.063-.852-3.1-1.275l-3.053-1.39-3.025-1.463c-1-.516-1.992-1.027-3-1.525.949.6,1.907,1.185,2.868,1.768s1.948,1.122,2.932,1.667c.993.527,2,1.039,3,1.543l1.533.71c.51.238,1.021.478,1.546.685a48.592,48.592,0,0,0,6.392,2.252l.821.221.831.189c.551.138,1.117.222,1.678.322.566.077,1.133.156,1.709.19a9.687,9.687,0,0,0,1.779-.01l.314-.035.05-.331c.465-3.049,1.085-6.089,1.731-9.123l.986-4.55Z" transform="translate(-349.505 -651.041)" fill="#c7d6ec"/>
    <path id="Path_238" data-name="Path 238" d="M741.453,959.268q1.012,2.649,1.835,5.325a46.707,46.707,0,0,1,1.331,5.421,26.059,26.059,0,0,1,.367,2.75,20.181,20.181,0,0,1,.069,2.764c-.068,1.843-2.8,10.514-3.6,12.231,1.134-1.523,4.107-10.267,4.308-12.174a19.877,19.877,0,0,0-.25-5.73c-.179-.939-.389-1.87-.649-2.786s-.56-1.82-.908-2.7A29.033,29.033,0,0,0,741.453,959.268Z" transform="translate(-406.894 -647.985)" fill="#c7d6ec"/>
    <path id="Path_239" data-name="Path 239" d="M648.755,1064.249a20.229,20.229,0,0,0-2.222,21.138c2.347,4.756,6.776,9.19,14.945,11.2,21.781,5.364,49.27,5.909,49.27,5.909l.508,52.621,11.465,1.313s34.211-70.909-6.065-84.874l-36.852-2.145-15.1-2.042s-15.11-4.761-15.337-4.05A4.707,4.707,0,0,1,648.755,1064.249Z" transform="translate(-361.659 -696.51)" fill="#396dbc"/>
    <path id="Path_240" data-name="Path 240" d="M774.806,1135.381c-.585-.107-1.169-.205-1.746-.341s-1.147-.29-1.711-.459c-.282-.089-.567-.184-.846-.287a6.367,6.367,0,0,0,.858-.246,7.275,7.275,0,0,0,1.567-.8,8.919,8.919,0,0,0,1.31-1.153,8.731,8.731,0,0,0,1.027-1.389l-.581.63c-.208.195-.4.4-.618.582a8.505,8.505,0,0,1-1.349,1,8.1,8.1,0,0,1-1.5.706,5.8,5.8,0,0,1-1.594.321l-.947.035.841.39a11.1,11.1,0,0,0,1.723.6,17.256,17.256,0,0,0,1.763.378c.592.1,1.186.18,1.782.224s1.194.073,1.792.07C775.981,1135.56,775.391,1135.487,774.806,1135.381Z" transform="translate(-419.596 -727.989)" fill="#c7d6ec"/>
    <g id="Group_1296" data-name="Group 1296" transform="translate(588.399 92.091)">
      <path id="Path_242" data-name="Path 242" d="M1454.735,608.248a31.062,31.062,0,0,0-25.029-30.075l-26-5.146a17.508,17.508,0,0,1-10.373-6.365l-10.059-12.818a14.533,14.533,0,0,0-11.433-5.561h-68.5a14.533,14.533,0,0,0-11.432,5.561l-10.059,12.818a17.507,17.507,0,0,1-10.373,6.365l-26,5.146a31.062,31.062,0,0,0-25.029,30.075L1217.4,847.01a33.4,33.4,0,0,0,11.943,26.029c14.988,12.557,44.8,30.037,94.421,29.79v14.818a15.681,15.681,0,0,0,15.68,15.681h0a15.68,15.68,0,0,0,15.681-15.681V902.811c47.4-.616,76.095-17.532,90.7-29.772a33.4,33.4,0,0,0,11.943-26.029ZM1337.591,563.37a12.708,12.708,0,1,1-12.708,12.708A12.708,12.708,0,0,1,1337.591,563.37Z" transform="translate(-1217.402 -548.284)" fill="#ebf0ff"/>
      <path id="Path_243" data-name="Path 243" d="M1257.661,699.533a11.885,11.885,0,0,0-10.332,11.589L1244.9,900.486a28.984,28.984,0,0,0,10.486,22.665c13.565,11.269,40.954,27.094,86.972,25.874q8.064-.214,16.133,0c46.019,1.22,73.408-14.6,86.972-25.874a28.983,28.983,0,0,0,10.486-22.665L1453.49,709.47a11.888,11.888,0,0,0-10.467-11.609C1366.948,688.454,1298.641,693.97,1257.661,699.533Z" transform="translate(-1230.231 -615.716)" fill="#c7d6ec"/>
      <path id="Path_244" data-name="Path 244" d="M1453.226,833.891l-94.2,14.065-94.406-23.692-.061-.093-1.642,128.8a26.651,26.651,0,0,0,9.531,20.772c12.329,10.33,37.224,24.835,79.051,23.716q7.33-.2,14.664,0c41.827,1.119,66.722-13.386,79.051-23.716a26.648,26.648,0,0,0,9.531-20.772l-1.517-119.075Z" transform="translate(-1238.641 -677.031)" fill="#6dc21f"/>
      <path id="Path_245" data-name="Path 245" d="M1266.111,813.321s80.435,23.411,128.117-3.45,89.622,11.207,34.644,39.747C1372.417,878.925,1266.111,813.321,1266.111,813.321Z" transform="translate(-1240.133 -666.088)" fill="#669930"/>
      <rect id="Rectangle_201" data-name="Rectangle 201" width="70.896" height="70.896" rx="8.833" transform="translate(32.953 124.213)" fill="#fff"/>
      <path id="Rectangle_202" data-name="Rectangle 202" d="M12.8,0h0a12.8,12.8,0,0,1,12.8,12.8v167.03a12.8,12.8,0,0,1-12.8,12.8h0A12.8,12.8,0,0,1,0,179.826V12.8A12.8,12.8,0,0,1,12.8,0Z" transform="translate(182.465 95.123)" fill="#fff" opacity="0.5" style="mix-blend-mode: screen;isolation: isolate"/>
      <rect id="Rectangle_203" data-name="Rectangle 203" width="54.547" height="3.27" transform="translate(40.821 137.482)" fill="#7fa1d3" style="mix-blend-mode: multiply;isolation: isolate"/>
      <rect id="Rectangle_204" data-name="Rectangle 204" width="54.547" height="3.27" transform="translate(40.821 149.075)" fill="#7fa1d3" style="mix-blend-mode: multiply;isolation: isolate"/>
      <rect id="Rectangle_205" data-name="Rectangle 205" width="54.547" height="3.27" transform="translate(40.821 160.668)" fill="#7fa1d3" style="mix-blend-mode: multiply;isolation: isolate"/>
      <rect id="Rectangle_206" data-name="Rectangle 206" width="54.547" height="3.27" transform="translate(40.821 172.262)" fill="#7fa1d3" style="mix-blend-mode: multiply;isolation: isolate"/>
    </g>
    <path id="Path_246" data-name="Path 246" d="M954.5,1013.446a2.6,2.6,0,0,1-2.35-2.671c.116-10.763.354-70.7-8.8-69.1-10.06,1.756-8.3,83.2-7.824,92.138s1.6,52.377,3.832,62.277,7.16,219.727,4.632,268.59h94.373s-24.911-227.711-19.8-244.637,8.943-28.743,21.078-45.99,10.54-46.308,14.372-54.612,12.775-19.961,5.109-23.474-21.877,18.843-27.625,40.241c0,0-3.672,5.908-6.388-1.437s-7.505-88.625-7.825-94.694-3.194-11.178-7.505-10.7-6.228,15.49-6.707,40.081.829,44.553-4.456,43.594-2.89-77.607-7.042-90.542-12.3-3.992-12.136,11.657,2.555,76.65-2.4,76.01-2.555-84.792-11.178-83.994c-8.91.825-8.942,13.892-8.942,36.249C956.921,982.836,961.574,1013.872,954.5,1013.446Z" transform="translate(-497.262 -627.938)" fill="#f7c7a6"/>
    <path id="Path_247" data-name="Path 247" d="M953.559,1117.849s39.762-12.455,69.7-1.676C1023.261,1116.172,987.093,1113.3,953.559,1117.849Z" transform="translate(-505.876 -719.158)" fill="#f2a36c"/>
    <path id="Path_248" data-name="Path 248" d="M955.954,1164.1s34.492,30.021,41.358,44.871c0,0,18.524-33.854,33.534-45.989,0,0-22.835,9.9-33.055,28.424C997.791,1191.4,978.47,1170.964,955.954,1164.1Z" transform="translate(-506.994 -743.051)" fill="#f2a36c"/>
    <path id="Path_249" data-name="Path 249" d="M955.954,1257.594s2.874,18.843,30.979,16.128C986.933,1273.722,964.077,1269.773,955.954,1257.594Z" transform="translate(-506.994 -787.204)" fill="#f2a36c"/>
    <path id="Path_250" data-name="Path 250" d="M1023.716,1396.523H975.38a6.252,6.252,0,0,0-6.252,6.253v48.336a6.252,6.252,0,0,0,6.252,6.252H993.3v21.042a6.253,6.253,0,0,0,6.253,6.252h0a6.252,6.252,0,0,0,6.252-6.252v-21.042h17.915a6.252,6.252,0,0,0,6.252-6.252v-48.336A6.252,6.252,0,0,0,1023.716,1396.523Z" transform="translate(-513.142 -852.038)" fill="#c7d6ec"/>
    <rect id="Rectangle_207" data-name="Rectangle 207" width="39.017" height="39.017" rx="6.36" transform="translate(466.897 555.397)" fill="#dde6f4"/>
    <g id="Group_1297" data-name="Group 1297" transform="translate(557.804 509.592)">
      <rect id="Rectangle_208" data-name="Rectangle 208" width="33.209" height="203.705" transform="translate(6.346 11.846)" fill="#fff" opacity="0.9"/>
      <path id="Rectangle_209" data-name="Rectangle 209" d="M5.964,0H39.938A5.963,5.963,0,0,1,45.9,5.963V23.44A5.963,5.963,0,0,1,39.938,29.4H5.964A5.964,5.964,0,0,1,0,23.439V5.964A5.964,5.964,0,0,1,5.964,0Z" fill="#a481c9"/>
      <rect id="Rectangle_210" data-name="Rectangle 210" width="5.276" height="29.297" transform="translate(4.617)" fill="#9369bf"/>
      <rect id="Rectangle_211" data-name="Rectangle 211" width="5.276" height="29.297" transform="translate(15.081)" fill="#9369bf"/>
      <rect id="Rectangle_212" data-name="Rectangle 212" width="5.276" height="29.297" transform="translate(25.544)" fill="#9369bf"/>
      <rect id="Rectangle_213" data-name="Rectangle 213" width="5.276" height="29.297" transform="translate(36.008)" fill="#9369bf"/>
      <path id="Rectangle_214" data-name="Rectangle 214" d="M0,0H26.115a0,0,0,0,1,0,0V.41a8.95,8.95,0,0,1-8.95,8.95H8.951A8.951,8.951,0,0,1,0,.409V0A0,0,0,0,1,0,0Z" transform="translate(9.893 29.297)" fill="#9369bf"/>
      <path id="Path_251" data-name="Path 251" d="M1204.709,1640.583h-26.25v-108.2l11.178,4.125,15.071-4.125Z" transform="translate(-1168.634 -1425.032)" fill="#6dc21f"/>
      <path id="Path_252" data-name="Path 252" d="M1178.46,1530.585s11.419,3.41,18.187-.5,11.8.14,4.918,5.792C1194.477,1541.69,1178.46,1530.585,1178.46,1530.585Z" transform="translate(-1168.634 -1423.233)" fill="#5db30c"/>
      <path id="Rectangle_215" data-name="Rectangle 215" d="M2.594,0h0A2.594,2.594,0,0,1,5.188,2.594V176.229a2.594,2.594,0,0,1-2.594,2.594h0A2.594,2.594,0,0,1,0,176.23V2.594A2.594,2.594,0,0,1,2.594,0Z" transform="translate(12.486 33.977)" fill="#fff" opacity="0.2" style="mix-blend-mode: lighten;isolation: isolate"/>
      <rect id="Rectangle_216" data-name="Rectangle 216" width="33.209" height="203.705" transform="translate(63.734 11.846)" fill="#fff" opacity="0.9"/>
      <path id="Rectangle_217" data-name="Rectangle 217" d="M5.964,0H39.938A5.963,5.963,0,0,1,45.9,5.963V23.44A5.963,5.963,0,0,1,39.938,29.4H5.964A5.964,5.964,0,0,1,0,23.439V5.964A5.964,5.964,0,0,1,5.964,0Z" transform="translate(57.388)" fill="#a481c9"/>
      <rect id="Rectangle_218" data-name="Rectangle 218" width="5.276" height="29.297" transform="translate(62.005)" fill="#9369bf"/>
      <rect id="Rectangle_219" data-name="Rectangle 219" width="5.276" height="29.297" transform="translate(72.469)" fill="#9369bf"/>
      <rect id="Rectangle_220" data-name="Rectangle 220" width="5.276" height="29.297" transform="translate(82.932)" fill="#9369bf"/>
      <rect id="Rectangle_221" data-name="Rectangle 221" width="5.276" height="29.297" transform="translate(93.396)" fill="#9369bf"/>
      <path id="Rectangle_222" data-name="Rectangle 222" d="M0,0H26.115a0,0,0,0,1,0,0V.41a8.95,8.95,0,0,1-8.95,8.95H8.951A8.951,8.951,0,0,1,0,.409V0A0,0,0,0,1,0,0Z" transform="translate(67.281 29.297)" fill="#9369bf"/>
      <path id="Path_253" data-name="Path 253" d="M1312.312,1640.583h-26.249v-108.2l11.178,4.125,15.072-4.125Z" transform="translate(-1218.849 -1425.032)" fill="#6dc21f"/>
      <path id="Path_254" data-name="Path 254" d="M1286.063,1530.585s11.418,3.41,18.187-.5,11.8.14,4.918,5.792C1302.08,1541.69,1286.063,1530.585,1286.063,1530.585Z" transform="translate(-1218.849 -1423.233)" fill="#5db30c"/>
      <path id="Rectangle_223" data-name="Rectangle 223" d="M2.593,0h0A2.594,2.594,0,0,1,5.188,2.594V176.229a2.594,2.594,0,0,1-2.594,2.594h0A2.594,2.594,0,0,1,0,176.23V2.593A2.593,2.593,0,0,1,2.593,0Z" transform="translate(69.874 33.977)" fill="#fff" opacity="0.2" style="mix-blend-mode: lighten;isolation: isolate"/>
      <rect id="Rectangle_224" data-name="Rectangle 224" width="33.209" height="203.705" transform="translate(121.122 11.846)" fill="#fff" opacity="0.9"/>
      <path id="Rectangle_225" data-name="Rectangle 225" d="M5.964,0H39.938A5.963,5.963,0,0,1,45.9,5.963V23.44A5.963,5.963,0,0,1,39.938,29.4H5.964A5.964,5.964,0,0,1,0,23.439V5.964A5.964,5.964,0,0,1,5.964,0Z" transform="translate(114.776)" fill="#a481c9"/>
      <rect id="Rectangle_226" data-name="Rectangle 226" width="5.276" height="29.297" transform="translate(119.393)" fill="#9369bf"/>
      <rect id="Rectangle_227" data-name="Rectangle 227" width="5.276" height="29.297" transform="translate(129.857)" fill="#9369bf"/>
      <rect id="Rectangle_228" data-name="Rectangle 228" width="5.276" height="29.297" transform="translate(140.32)" fill="#9369bf"/>
      <rect id="Rectangle_229" data-name="Rectangle 229" width="5.276" height="29.297" transform="translate(150.784)" fill="#9369bf"/>
      <path id="Rectangle_230" data-name="Rectangle 230" d="M0,0H26.115a0,0,0,0,1,0,0V.41a8.95,8.95,0,0,1-8.95,8.95H8.951A8.951,8.951,0,0,1,0,.409V0A0,0,0,0,1,0,0Z" transform="translate(124.668 29.297)" fill="#9369bf"/>
      <path id="Path_255" data-name="Path 255" d="M1419.914,1640.583h-26.25v-108.2l11.178,4.125,15.071-4.125Z" transform="translate(-1269.063 -1425.032)" fill="#6dc21f"/>
      <path id="Path_256" data-name="Path 256" d="M1393.664,1530.585s11.419,3.41,18.188-.5,11.8.14,4.918,5.792C1409.681,1541.69,1393.664,1530.585,1393.664,1530.585Z" transform="translate(-1269.063 -1423.233)" fill="#5db30c"/>
      <path id="Rectangle_231" data-name="Rectangle 231" d="M2.593,0h0A2.594,2.594,0,0,1,5.188,2.594V176.23a2.594,2.594,0,0,1-2.594,2.594h0A2.594,2.594,0,0,1,0,176.23V2.593A2.593,2.593,0,0,1,2.593,0Z" transform="translate(127.262 33.977)" fill="#fff" opacity="0.2" style="mix-blend-mode: lighten;isolation: isolate"/>
    </g>
    <path id="Path_257" data-name="Path 257" d="M1321.122,1462.182a5.236,5.236,0,0,0,5.236-5.235V1443.62a5.235,5.235,0,0,0-5.236-5.235H1080.611a5.235,5.235,0,0,0-5.235,5.235v13.327a5.235,5.235,0,0,0,5.235,5.235h17.61v131.784h-18.985a3.86,3.86,0,0,0-3.86,3.86v6.875a3.86,3.86,0,0,0,3.86,3.861H1322.5a3.86,3.86,0,0,0,3.86-3.861v-6.875a3.86,3.86,0,0,0-3.86-3.86h-18.985V1462.182Zm-26.811,131.784H1107.423V1462.182h186.888Z" transform="translate(-562.724 -871.573)"/>
    <path id="Path_258" data-name="Path 258" d="M1322.661,1390.16c-2.1-23.521-14.8-44.117-26.017-62.31-5.487-8.9-11.162-18.1-17.211-26.915-1.7-2.474-3.461-4.978-5.166-7.4-10.148-14.412-20.642-29.316-23-46.049l-10.674,1.5c2.717,19.309,13.972,35.293,24.857,50.753,1.686,2.395,3.43,4.871,5.091,7.292,5.9,8.6,11.506,17.688,16.939,26.5,10.58,17.155,22.571,36.6,24.441,57.587,1.252,14.035-2.454,27.406-10.168,36.682-9.992,12.018-27.314,18.712-52.957,20.467-7.784.532-16.07.768-23.925-1.1a96.444,96.444,0,0,1-12.52-4.241c-1.541-.6-3.135-1.219-4.733-1.81-18.742-6.921-35.945-8.671-51.134-5.2-14.084,3.216-26.254,10.828-38.024,18.188-3.07,1.92-6.245,3.906-9.366,5.753-17.923,10.608-32.6,14.257-44.883,11.155-11.278-2.85-21.594-11.916-28.3-24.872-6.014-11.619-5.458-21.095-7.6-34.5a6.243,6.243,0,0,1-9.526,2.072c.481,7.961,2.16,26.963,7.553,37.381,8.124,15.695,20.965,26.764,35.233,30.368a46.554,46.554,0,0,0,11.453,1.4c12.332,0,26.043-4.544,41.561-13.729,3.233-1.914,6.465-3.935,9.59-5.89,11.518-7.2,22.4-14.006,34.708-16.818,13.115-2.995,28.255-1.377,45,4.806,1.509.557,3.059,1.161,4.557,1.744a106.052,106.052,0,0,0,13.938,4.683c9.28,2.2,18.932,1.926,27.153,1.364,28.74-1.965,48.533-9.924,60.51-24.328C1319.564,1423.24,1324.162,1407.01,1322.661,1390.16Z" transform="translate(-536.317 -782.488)" fill="#fff"/>
    <path id="Path_259" data-name="Path 259" d="M1322.068,1390.785c-2.034-22.824-14.54-43.1-25.587-61.017-5.469-8.867-11.123-18.036-17.133-26.795-1.688-2.46-3.445-4.955-5.145-7.37-10.351-14.7-21.054-29.9-23.508-47.342l-4.8.675c2.617,18.6,13.663,34.288,24.345,49.46,1.692,2.4,3.441,4.885,5.111,7.321,5.944,8.661,11.567,17.779,17.018,26.619,10.752,17.435,22.938,37.2,24.871,58.88,1.32,14.809-2.631,28.967-10.842,38.841-10.538,12.674-28.539,19.716-55.034,21.528-8.017.549-16.572.786-24.813-1.171a100.112,100.112,0,0,1-12.91-4.362c-1.529-.6-3.11-1.211-4.684-1.792-18.193-6.717-34.829-8.432-49.447-5.094-13.6,3.1-25.551,10.581-37.112,17.812-3.085,1.929-6.276,3.925-9.427,5.79-18.63,11.028-34.044,14.783-47.119,11.478-12.1-3.057-23.111-12.673-30.208-26.383-5.987-11.566-5.177-20.627-7.037-33.479a6.222,6.222,0,0,1-3.521,1.086,6.3,6.3,0,0,1-1.238-.123c1.916,13.187,1.214,22.625,7.489,34.746,7.734,14.943,19.881,25.46,33.326,28.858a43.624,43.624,0,0,0,10.725,1.306c11.791,0,25-4.406,40.053-13.314,3.2-1.9,6.418-3.907,9.529-5.851,11.22-7.017,22.822-14.273,35.62-17.2,13.683-3.125,29.391-1.471,46.686,4.916,1.534.567,3.1,1.174,4.606,1.762a103.7,103.7,0,0,0,13.548,4.561c8.87,2.107,17.866,1.867,26.265,1.291,27.889-1.908,47-9.518,58.433-23.267C1319.147,1422.305,1323.5,1406.861,1322.068,1390.785Z" transform="translate(-538.676 -782.849)" fill="#6dc21f"/>
    <path id="Path_260" data-name="Path 260" d="M1687.261,1721.217l-.245,7.02,11.008-.538,2.593-8.586Z" transform="translate(-848.156 -1002.58)" fill="#f7c7a6"/>
    <path id="Path_261" data-name="Path 261" d="M1817.464,1700.184l7.984,11.944,8.619-6.869-2.912-8.483Z" transform="translate(-909.032 -992.156)" fill="#f7c7a6"/>
    <g id="Group_1301" data-name="Group 1301" transform="translate(908.093 711.954)">
      <path id="Path_262" data-name="Path 262" d="M1822.6,1741.7l20.38-14.765a1.408,1.408,0,0,0,.314-1.967h0a1.407,1.407,0,0,0-1.966-.314l-20.38,14.764a1.408,1.408,0,0,0-.315,1.966h0A1.409,1.409,0,0,0,1822.6,1741.7Z" transform="translate(-1818.478 -1716.997)" fill="#fff"/>
      <path id="Path_263" data-name="Path 263" d="M1834.76,1711.186l5.346,5.8c.659.715.737,1.742.162,2.159l-19.97,14.466a1.8,1.8,0,0,1-1.979.012c-.731-.421-1.468-1.32-1.49-3.232-.043-3.783,5.274-8.595,6.653-12.8a.422.422,0,0,1,.154-.213l9.189-6.656A1.522,1.522,0,0,1,1834.76,1711.186Z" transform="translate(-1816.828 -1710.528)" fill="#141414"/>
      <g id="Group_1298" data-name="Group 1298" transform="translate(4.482 8.123)">
        <path id="Path_264" data-name="Path 264" d="M1831.526,1727.223h0a.528.528,0,0,0-.261-.6c-1.021-.586-3.78-1.813-5.958.428a.441.441,0,0,0,.082.571l.005.005a.352.352,0,0,0,.5.08c1.959-2,4.352-.89,5.2-.391C1831.276,1727.424,1831.459,1727.384,1831.526,1727.223Z" transform="translate(-1825.233 -1725.758)" fill="#fff"/>
      </g>
      <g id="Group_1299" data-name="Group 1299" transform="translate(3 10.442)">
        <path id="Path_265" data-name="Path 265" d="M1828.746,1731.571h0a.528.528,0,0,0-.26-.6c-1.022-.584-3.78-1.813-5.959.428a.441.441,0,0,0,.083.571l.006.006a.352.352,0,0,0,.5.08c1.959-2,4.352-.89,5.2-.392A.279.279,0,0,0,1828.746,1731.571Z" transform="translate(-1822.453 -1730.106)" fill="#fff"/>
      </g>
      <g id="Group_1300" data-name="Group 1300" transform="translate(1.623 12.601)">
        <path id="Path_266" data-name="Path 266" d="M1826.164,1735.619h0a.531.531,0,0,0-.261-.6c-1.021-.584-3.78-1.812-5.959.428a.44.44,0,0,0,.083.571l.005.006c.163.174.382.205.5.08,1.958-2,4.352-.89,5.2-.391A.28.28,0,0,0,1826.164,1735.619Z" transform="translate(-1819.871 -1734.155)" fill="#fff"/>
      </g>
    </g>
    <path id="Path_267" data-name="Path 267" d="M1441.642,1173.476a390.308,390.308,0,0,1,1.845-69.756c4.485-37.047-10.464,3.034-10.464,3.034s-.319,52.032,3.815,67.4S1441.642,1173.476,1441.642,1173.476Z" transform="translate(-729.624 -708.063)" fill="#6dc21f"/>
    <path id="Path_268" data-name="Path 268" d="M1767.7,1206a5.166,5.166,0,0,1,1.143.822c1.132,1.116,1.468,2.886,2.685,3.908a10.116,10.116,0,0,0,2.081,1.131,4.372,4.372,0,0,1,2.272,2.2,5.671,5.671,0,0,1,.259,1.806,9.912,9.912,0,0,1-.258,3.292c-.191.614-.5,1.188-.656,1.812-.307,1.237.022,2.549-.169,3.809a9.3,9.3,0,0,1-1.005,2.691,5.142,5.142,0,0,1-.8,1.276,4.321,4.321,0,0,1-3.606.953,13.555,13.555,0,0,0-3.844-.2,14.709,14.709,0,0,0-2.989,1.221,10.831,10.831,0,0,1-4.836.889,2.98,2.98,0,0,1-1.344-.308,3.471,3.471,0,0,1-1-1.022,36.568,36.568,0,0,1-4.245-6.71,10.978,10.978,0,0,1,1.864-12.9,36.651,36.651,0,0,1,4.4-4A9.537,9.537,0,0,1,1767.7,1206Z" transform="translate(-877.606 -762.609)" fill="#141414"/>
    <path id="Path_269" data-name="Path 269" d="M1665.479,1363.154l2.919-12.551-11.915-8.959s-2.062,14.96-3.1,20.97l-24.071.42-4.62.874s32.1,13.442,34.144,9.317c.575-1.162,2.3-2.842,3.942-4.81.853.209,1.4.34,1.4.34l.776-3.339a10.826,10.826,0,0,0,1.031-2.262Z" transform="translate(-819.072 -826.428)" fill="#f7c7a6"/>
    <path id="Path_270" data-name="Path 270" d="M1700.69,1274.054s-15.387,6.07-21.344,37.9c0,0,3.85,5.213,12.443,5.789s5.977-20.438,5.977-20.438Z" transform="translate(-844.577 -794.885)" fill="#376cbb"/>
    <path id="Path_271" data-name="Path 271" d="M1739.925,1251.029l-.585,9.222-12.57,2.614h-2.221l.464-11.049,13.332-4.708Z" transform="translate(-865.672 -782.31)" fill="#f7c7a6"/>
    <path id="Path_272" data-name="Path 272" d="M1716.341,1276.253c-.569,6.2,1.994,7.35,1.994,7.35l18.983-14.088c-11.783,1.155-19.4,2.421-19.4,2.421S1716.937,1276.422,1716.341,1276.253Z" transform="translate(-861.803 -792.767)" fill="#f7c7a6"/>
    <path id="Path_273" data-name="Path 273" d="M1740.716,1193.839s3.876-15.9-5.356-21.857-19.017-5.293-25.681-1.725-10.655,16.01-7.667,23.118l22.122-6.788Z" transform="translate(-854.685 -745.177)" fill="#141414"/>
    <path id="Path_274" data-name="Path 274" d="M1620.521,1359.634c-2.2-.955-3.816-1.939-4.445-2.915l-.709-1.842c-.881-2.3-2.214-3.312-3.053-2.863l-.143.116s.56,3.727,1.016,6.778l-1.915-.288-1.012,11.607,9.124-1.227Z" transform="translate(-812.337 -831.218)" fill="#f7c7a6"/>
    <path id="Path_275" data-name="Path 275" d="M1725.271,1413.1l-9.128,79.844s-8.654,68.326-15.643,83.52H1685l3.373-152.7,27.319-17.172Z" transform="translate(-847.216 -856.739)" fill="#1e5ab3"/>
    <path id="Path_276" data-name="Path 276" d="M1740.391,1249.943s-.267,2.677-.5,6.012c-4.781,5.236-13.742,3.439-14.925,2.932.073-1.678,0-5.072,0-5.072Z" transform="translate(-865.867 -783.634)" fill="#f2a36c"/>
    <path id="Path_277" data-name="Path 277" d="M1747.365,1404.317s17.322,22.336,13.219,57.89-3.19,48.318-3.19,48.318,22.335,20.512,29.172,50.141c0,0-9.8,6.837-16.409,7.977,0,0-32.82-50.141-35.326-56.067s-18.1-99.1-18.1-99.1Z" transform="translate(-862.022 -855.675)" fill="#396dbc"/>
    <path id="Path_278" data-name="Path 278" d="M1702.586,1218.715c.787,2.14.038,4.385-1.674,5.015s-3.738-.594-4.525-2.733-.038-4.385,1.673-5.015S1701.8,1216.576,1702.586,1218.715Z" transform="translate(-852.383 -767.708)" fill="#f2a36c"/>
    <path id="Path_279" data-name="Path 279" d="M1705.948,1215.733a17.275,17.275,0,0,1-1.226-2.931,32.659,32.659,0,0,1-1.485-8.171c-.034-.542-.1-1.08-.174-1.617a17.638,17.638,0,1,1,35.094-1.843,3.809,3.809,0,0,1,3.439-.15c2.06,1.006,2.71,3.91,1.452,6.484s-3.947,3.846-6.006,2.839a3.368,3.368,0,0,1-.772-.526c-1.176,8.6-8.477,15.018-16.952,14.586a15.825,15.825,0,0,1-10.577-4.837,7.906,7.906,0,0,1-.577-.579A15.286,15.286,0,0,1,1705.948,1215.733Z" transform="translate(-855.565 -752.361)" fill="#f7c7a6"/>
    <path id="Path_280" data-name="Path 280" d="M1738.36,1220.3a1.657,1.657,0,1,0,1.739-1.571A1.657,1.657,0,0,0,1738.36,1220.3Z" transform="translate(-872.116 -769.066)" fill="#141414"/>
    <path id="Path_281" data-name="Path 281" d="M1710.778,1220.3a1.657,1.657,0,1,0,1.739-1.571A1.657,1.657,0,0,0,1710.778,1220.3Z" transform="translate(-859.244 -769.066)" fill="#141414"/>
    <path id="Path_282" data-name="Path 282" d="M1735.75,1215.012a10.236,10.236,0,0,1,2.332-.895,7.4,7.4,0,0,1,2.415-.185,6.169,6.169,0,0,1,1.186.224c.2.049.385.122.578.188.1.034.187.079.283.116s.19.075.281.122a12.415,12.415,0,0,1,2.119,1.332,6.638,6.638,0,0,0-1.9-1.738,5.7,5.7,0,0,0-1.194-.557,5.551,5.551,0,0,0-1.3-.277,6.066,6.066,0,0,0-2.6.333,6.689,6.689,0,0,0-1.178.553A5.269,5.269,0,0,0,1735.75,1215.012Z" transform="translate(-870.899 -766.542)" fill="#141414"/>
    <path id="Path_283" data-name="Path 283" d="M1715.185,1215.012a5.257,5.257,0,0,0-1.022-.783,6.7,6.7,0,0,0-1.178-.553,6.068,6.068,0,0,0-2.6-.333,5.546,5.546,0,0,0-1.3.277,5.667,5.667,0,0,0-1.194.557,6.639,6.639,0,0,0-1.9,1.738,12.4,12.4,0,0,1,2.12-1.332c.091-.047.186-.084.281-.122s.187-.083.283-.116c.192-.066.381-.139.578-.188a6.177,6.177,0,0,1,1.186-.224,7.4,7.4,0,0,1,2.415.185A10.223,10.223,0,0,1,1715.185,1215.012Z" transform="translate(-857.011 -766.542)" fill="#141414"/>
    <path id="Path_284" data-name="Path 284" d="M1789.6,1315.515a13.019,13.019,0,0,1-1.124-1.364,14.653,14.653,0,0,1-.957-1.5,13.718,13.718,0,0,1-.783-1.605,16.534,16.534,0,0,1-.6-1.7,9.744,9.744,0,0,0,.381,1.777c.084.293.2.576.3.862s.237.563.378.833a11.951,11.951,0,0,0,.937,1.574,11.114,11.114,0,0,0,.919,1.153,6.656,6.656,0,0,1-2.246.055c-.218-.026-.431-.077-.647-.122-.209-.063-.425-.114-.63-.2a7.072,7.072,0,0,1-1.2-.578,5.513,5.513,0,0,0,2.429,1.193,6.05,6.05,0,0,0,1.372.138,5.689,5.689,0,0,0,1.385-.174l.332-.087Z" transform="translate(-893.57 -811.355)" fill="#fff"/>
    <path id="Path_285" data-name="Path 285" d="M1724.775,1220.243a19.681,19.681,0,0,0-1.225,2.348,18.645,18.645,0,0,0-.924,2.493,7.073,7.073,0,0,0-.249,1.346,2.569,2.569,0,0,0,.013.371c.007.064.025.134.038.2a.892.892,0,0,0,.1.215c.026.036.054.072.083.105l.068.06c.046.038.091.08.139.115.1.067.191.137.292.193a6.317,6.317,0,0,0,1.228.56,8.573,8.573,0,0,0,1.286.338,14.551,14.551,0,0,1-2.278-1.248c-.087-.06-.162-.13-.241-.195l-.108-.1-.052-.051a.082.082,0,0,0-.014-.028,1.017,1.017,0,0,1-.038-.5,7.161,7.161,0,0,1,.258-1.235c.228-.831.517-1.655.794-2.483S1724.513,1221.088,1724.775,1220.243Z" transform="translate(-864.658 -769.774)" fill="#f2a36c"/>
    <path id="Path_286" data-name="Path 286" d="M1738.994,1323.221v0c2.258-12.564,3.23-26.048,3.23-26.048a77.121,77.121,0,0,0-.074-8.294c-3.148-2.561-7.538-6.194-7.538-6.194l-7.506-12.79,0-.009c-2.852-.266-5.878-.387-5.878-.387l-18.737,14.1-.419-11.667c-.094.07-.188.14-.279.214a40,40,0,0,0-14.483,26.679,134.761,134.761,0,0,0-.255,22.382h0s-3.2,40.892-4.74,47.426c0,0,42.469,4.227,65.145,0C1747.463,1368.628,1738.787,1341.038,1738.994,1323.221Z" transform="translate(-845.964 -792.758)" fill="#5280c4"/>
    <g id="Group_1302" data-name="Group 1302" transform="translate(783.661 516.037)">
      <path id="Path_287" data-name="Path 287" d="M1638.42,1390.691l-32.486,1.959a5.487,5.487,0,0,1-5.082-2.939l-17.09-39.544c-.755-1.747.3-3.263,2.348-3.387l32.487-1.959a5.488,5.488,0,0,1,5.082,2.939l17.09,39.545C1641.523,1389.051,1640.472,1390.567,1638.42,1390.691Z" transform="translate(-1583.518 -1343.944)" fill="#141414"/>
      <path id="Path_288" data-name="Path 288" d="M1619.3,1346.629l-11.059.667a2.372,2.372,0,0,1-2.2-1.27l-.307-.708c-.326-.755.128-1.41,1.015-1.464l11.059-.667a2.372,2.372,0,0,1,2.2,1.27l.306.708C1620.638,1345.92,1620.184,1346.575,1619.3,1346.629Z" transform="translate(-1593.837 -1343.183)" fill="#b7cae7"/>
    </g>
    <path id="Path_289" data-name="Path 289" d="M1601.9,1399.01l-.138.061a1.753,1.753,0,0,1-2.225-.729l-5.091-8.84a1.28,1.28,0,0,1,.033-1.374c.861-1.286,2.719-3.932,3.352-3.834.837.128-1.716,4.524-1.368,4.613s3.959-2.84,4.266-2.362c.274.427-2.9,3.834-2.759,4.1s3.818-1.867,4.214-1.485c.358.345-3.1,3.1-3.053,3.291Z" transform="translate(-804.873 -846.329)" fill="#f7c7a6"/>
    <path id="Path_290" data-name="Path 290" d="M1660.288,1383.4c.035-.616,5.194-4.5,4.9-4.778s-6.046,3.171-6.464,2.377,6.009-4.357,5.419-4.853-7.084,3.32-7.348,2.534c-.222-.661,6.937-5.107,9.221-6.5a.435.435,0,0,0-.044-.764c-4.808-2.266-5.047-2.723-4.677-3.194.263-.335,5.055.276,9.572.593l5.484.526c1.54-.363,47.586-11.24,50.1-14.26,2.554-3.072-4.3-19.678-4.3-19.678l14.956-6.421s6.847,27.24.253,35.634c-3.555,4.524-60.739,12.6-60.739,12.6-.9.694-3.362,2.351-3.362,2.351-9.983,6.354-8.862,5.868-9.152,5.543s3.062-4.106,2.612-4.337S1660.253,1384.02,1660.288,1383.4Z" transform="translate(-834.051 -820.518)" fill="#f7c7a6"/>
    <path id="Path_291" data-name="Path 291" d="M1766.294,1270.238s16.749,6.342,27.355,31c0,0-5.2,11.51-22.445,11.9Z" transform="translate(-885.152 -793.105)" fill="#5280c4"/>
    <path id="Path_292" data-name="Path 292" d="M1788.924,1317.408a19.465,19.465,0,0,1-4.31,4.956,25.02,25.02,0,0,1-5.489,3.53,32.185,32.185,0,0,1-6.183,2.061c-1.053.275-2.149.359-3.22.55-1.085.109-2.177.16-3.264.243l.57.432c-.549-2.183-1.173-4.328-1.836-6.469s-1.373-4.266-2.215-6.345a60.594,60.594,0,0,0-2.8-6.119,18.785,18.785,0,0,0-4.011-5.369,20.221,20.221,0,0,1,3.514,5.62,61.121,61.121,0,0,1,2.477,6.172c.7,2.106,1.427,4.206,2.047,6.34s1.207,4.282,1.724,6.432l.114.473.456-.041c1.119-.1,2.24-.171,3.356-.3,1.1-.212,2.228-.319,3.314-.619a26.766,26.766,0,0,0,3.236-.957,24.76,24.76,0,0,0,3.1-1.331,25.326,25.326,0,0,0,5.474-3.9A18.121,18.121,0,0,0,1788.924,1317.408Z" transform="translate(-880.427 -809.271)" fill="#f5f2f9"/>
    <path id="Path_293" data-name="Path 293" d="M1602.926,1399.083s3.675-1.117,4-.7-4.018,2.756-4,2.649S1602.926,1399.083,1602.926,1399.083Z" transform="translate(-808.914 -852.861)" fill="#f7c7a6"/>
    <path id="Path_294" data-name="Path 294" d="M1746.973,1196.455l-.415-.049-.279-3.449-1.543-3.191s-6.043-8.579-6.256-8.791-4.821-2.978-5.1-3.12-6.735.922-6.735.922-11.35-2.442-9.43,3.9,10.209,9.643,10.635,9.359c-1.348-1.418-1.489-5.459-1.489-5.459,6.381,7.373,18.38,12.222,18.38,12.222a3.676,3.676,0,0,1,3.44-.15Z" transform="translate(-862.145 -749.986)" fill="#141414"/>
    <path id="Path_295" data-name="Path 295" d="M1719.978,1240.645a4.693,4.693,0,0,0,9.05-.156Z" transform="translate(-863.539 -779.222)" fill="#fff"/>
    <g id="Group_1304" data-name="Group 1304" transform="translate(154.09 561.537)">
      <g id="Group_1303" data-name="Group 1303" transform="translate(39.933)">
        <path id="Path_296" data-name="Path 296" d="M588.116,1465.665h-7.649V1445.4a9.272,9.272,0,0,0-9.261-9.261h-76.35a9.272,9.272,0,0,0-9.261,9.261v20.261h-7.648V1445.4a16.929,16.929,0,0,1,16.909-16.909h76.35a16.929,16.929,0,0,1,16.91,16.909Z" transform="translate(-477.947 -1428.495)" fill="#6890cc"/>
      </g>
      <path id="Rectangle_232" data-name="Rectangle 232" d="M5.781,0h8.944a5.782,5.782,0,0,1,5.782,5.782v0a0,0,0,0,1,0,0H0a0,0,0,0,1,0,0v0A5.781,5.781,0,0,1,5.781,0Z" transform="translate(33.504 29.238)" fill="#396dbc"/>
      <path id="Rectangle_233" data-name="Rectangle 233" d="M5.781,0h8.944a5.782,5.782,0,0,1,5.782,5.782v0a0,0,0,0,1,0,0H0a0,0,0,0,1,0,0v0A5.781,5.781,0,0,1,5.781,0Z" transform="translate(136.024 29.238)" fill="#396dbc"/>
      <path id="Rectangle_234" data-name="Rectangle 234" d="M20.6,0H165.39a20.6,20.6,0,0,1,20.6,20.6v99.025a20.6,20.6,0,0,1-20.6,20.6H20.6A20.6,20.6,0,0,1,0,119.626V20.6A20.6,20.6,0,0,1,20.6,0Z" transform="translate(0 35.02)" fill="#a481c9"/>
      <rect id="Rectangle_235" data-name="Rectangle 235" width="26.223" height="140.226" transform="translate(30.646 35.02)" fill="#9369bf"/>
      <rect id="Rectangle_236" data-name="Rectangle 236" width="26.223" height="140.226" transform="translate(133.166 35.02)" fill="#9369bf"/>
    </g>
    <path id="Path_298" data-name="Path 298" d="M693.33,866.674s13.258-4.68,21.834-14.415c0,0,6.358,8.742,10.712,9.992,0,0,.392-13.932-13.939-15.844S690.155,855.65,693.33,866.674Z" transform="translate(-384.098 -595.216)" fill="#141414"/>
    <path id="Path_299" data-name="Path 299" d="M868.1,810.257l-10.22-18.763-10.22,18.763s-22.59,41.979-15.329,59.883q.109.268.221.532c9.517,22.351,41.139,22.351,50.656,0q.112-.263.221-.532C890.691,852.236,868.1,810.257,868.1,810.257Z" transform="translate(-448.632 -569.691)" fill="#5db30c"/>
    <path id="Path_300" data-name="Path 300" d="M857.885,791.494l-10.22,18.763s-18.8,34.947-16.581,54.668c13,12.672,36.507,9.643,44.484-9.091q.112-.263.221-.532c5.209-12.844-4.945-38.077-11.1-51.315Z" transform="translate(-448.636 -569.691)" fill="#6dc21f"/>
    <path id="Path_301" data-name="Path 301" d="M921.124,838.187c-1.393,1.182-2.73,2.408-4.04,3.654-2.615,2.5-5.093,5.1-7.481,7.776s-4.656,5.441-6.847,8.269q-2.23,2.881-4.333,5.861l-1.047-.83c-.692-.542-1.4-1.067-2.1-1.6s-1.427-1.039-2.139-1.561c-1.449-1.017-2.907-2.023-4.421-2.973s-3.046-1.879-4.682-2.7c.881,1.6,1.862,3.106,2.865,4.585s2.058,2.9,3.124,4.316c.546.693,1.08,1.4,1.634,2.083s1.106,1.372,1.673,2.044l1.708,2.007,1.746,1.968,2.331,2.627,2.675-2.982c2.394-2.669,4.679-5.423,6.882-8.241s4.315-5.707,6.327-8.673,3.917-6.016,5.694-9.165c.885-1.578,1.745-3.175,2.547-4.817s1.579-3.3,2.237-5.057C923.936,835.843,922.517,837,921.124,838.187Z" transform="translate(-473.431 -589.888)" fill="#fff"/>
    <path id="Path_304" data-name="Path 304" d="M210.006,1674.222c1.781,1.729,3.275,5.152,4.857,8.778a83.025,83.025,0,0,0,4.5,9.212H266.1c-1.268-.792-2.565-1.541-3.9-2.221a94.794,94.794,0,0,0-8.793-3.792c-3.994-1.557-7.765-3.028-9.7-4.96-1.76-1.761-3.238-5.148-4.8-8.733-2.291-5.251-5.143-11.786-10.633-17.113-7.413-7.192-16.842-9.6-24.418-11.526-5.3-1.351-10.305-2.627-12.646-4.979a29.528,29.528,0,0,1-3.878-6.148c-.849-1.581-1.726-3.218-2.766-4.923a57.127,57.127,0,0,0-39.785-26.432c-.925-.14-1.788-.248-2.623-.352-1.342-.167-13.705-2.689-17.827.143h0a12.921,12.921,0,0,0,.62,21.74,26.96,26.96,0,0,0,2.951,1.511,37.969,37.969,0,0,0,11.009,2.639c.7.087,1.36.17,1.95.259a31.021,31.021,0,0,1,21.31,14.158c.661,1.082,1.331,2.333,2.042,3.657.223.417.455.847.692,1.285l11.548.387-8.337,5.021a37.042,37.042,0,0,0,4.495,5.555c7.446,7.484,17.049,9.932,24.765,11.9C202.639,1670.63,207.609,1671.9,210.006,1674.222Z" transform="translate(-116.275 -946.919)" fill="#769ad0"/>
    <path id="Path_305" data-name="Path 305" d="M214.432,1561.724c1.814,2.672,2.816,7.429,3.877,12.466,1.58,7.5,3.37,16,8.693,24.106,5.889,8.961,14.266,14.4,21,18.766,1.643,1.067,3.228,2.1,4.692,3.116h43.4a69.4,69.4,0,0,0-19.3-24.6,123.463,123.463,0,0,0-10.206-7.148c-4.679-3.036-9.1-5.9-11.051-8.876-1.779-2.708-2.769-7.413-3.819-12.395-1.536-7.3-3.448-16.375-9.041-24.609-7.551-11.12-18.933-16.667-28.078-21.124-6.4-3.118-12.439-6.063-14.8-9.678-1.273-1.949-2.268-5.3-3.322-8.855-.665-2.24-1.351-4.555-2.228-7A73.877,73.877,0,0,0,174.6,1466.5l-7.816,12.343,3.443-16.054a72.873,72.873,0,0,0-19.713-11.069c-1.142-.422-2.214-.787-3.25-1.14-1.666-.567-16.756-7.038-22.755-4.516h0a16.918,16.918,0,0,0-9.727,20.161l15.531,1.311-11.785,5.353c.33.357.672.707,1.041,1.043a35.173,35.173,0,0,0,3.363,2.7,49.392,49.392,0,0,0,13.332,6.264c.869.3,1.689.575,2.417.844A40.367,40.367,0,0,1,162.1,1507.4c.556,1.553,1.082,3.324,1.638,5.2a100.161,100.161,0,0,0,3.253,9.668l17.583,3.383-14.69,2.6q.624,1.092,1.327,2.175c7.515,11.5,19.109,17.15,28.423,21.69C205.991,1555.206,211.991,1558.129,214.432,1561.724Z" transform="translate(-114.154 -874.885)" fill="#5783c6"/>
    <path id="Path_306" data-name="Path 306" d="M246.622,1398.484c-.335,5.594-.741,12.4.512,19.64,9.035,5.087,26.679,15.027,24.667,13.957-1.885-1-14.894-4.021-22.514-5.738,4.538,12.815,13.561,22.146,20.985,29.819,5.737,5.93,11.157,11.531,12.4,16.45.926,3.656.129,9.277-.715,15.228-1.257,8.862-2.681,18.908-.068,29.924,2.891,12.182,9.918,21.491,15.565,28.969,2.3,3.047,4.473,5.925,6.114,8.62.3.5.588,1,.867,1.511h42.444a80.24,80.24,0,0,0-9.259-22.239,144.269,144.269,0,0,0-8.352-11.915c-3.925-5.2-7.633-10.108-8.591-14.148-.873-3.682-.084-9.241.75-15.127,1.222-8.619,2.743-19.346-.113-30.615-3.855-15.214-14.136-25.84-22.4-34.378-5.779-5.972-11.237-11.613-12.389-16.523-.621-2.646-.376-6.725-.116-11.044.164-2.723.333-5.539.346-8.574a86.912,86.912,0,0,0-26.75-62.635l-7.791,3.437,3.846-6.966c-.974-.817-1.908-1.569-2.811-2.294-1.6-1.286-15.586-14.4-23.175-14.027h0c-14.266.708-23.181,15.977-16.53,28.617a40.906,40.906,0,0,0,2.614,4.309c3.84,5.531,8.44,9.223,12.136,12.19.835.671,1.625,1.3,2.316,1.889a47.141,47.141,0,0,1,16.281,35.306C246.889,1394.052,246.759,1396.206,246.622,1398.484Z" transform="translate(-159.492 -811.57)" fill="#1e5ab3"/>
    <rect id="Rectangle_237" data-name="Rectangle 237" width="998.83" height="8.548" transform="translate(69.598 736.745)" fill="#3a3a3d"/>
    <g id="Group_1320" data-name="Group 1320" transform="translate(824.279 723.789)">
      <path id="Path_317" data-name="Path 317" d="M1661.1,1754.481l25.167-.074a1.408,1.408,0,0,0,1.4-1.412h0a1.408,1.408,0,0,0-1.412-1.4l-25.167.073a1.407,1.407,0,0,0-1.4,1.412h0A1.408,1.408,0,0,0,1661.1,1754.481Z" transform="translate(-1659.684 -1741.525)" fill="#fff"/>
      <path id="Path_318" data-name="Path 318" d="M1686.357,1734.227l.95,7.829c.117.965-.421,1.844-1.13,1.846l-24.659.072a1.8,1.8,0,0,1-1.613-1.147c-.347-.77-.42-1.93.679-3.494,2.176-3.095,9.3-3.893,12.879-6.5a.423.423,0,0,1,.25-.083l11.347-.033C1685.7,1732.715,1686.251,1733.354,1686.357,1734.227Z" transform="translate(-1659.677 -1732.717)" fill="#141414"/>
      <g id="Group_1317" data-name="Group 1317" transform="translate(10.435 0.729)">
        <path id="Path_319" data-name="Path 319" d="M1684.462,1737.931h0a.529.529,0,0,0,.138-.638c-.487-1.072-2.008-3.68-5.085-3.134-.178.031-.3.269-.267.512v.007c.03.236.19.39.363.361,2.758-.479,4.052,1.82,4.446,2.718C1684.141,1737.948,1684.314,1738.023,1684.462,1737.931Z" transform="translate(-1679.243 -1734.084)" fill="#fff"/>
      </g>
      <g id="Group_1318" data-name="Group 1318" transform="translate(7.878 1.744)">
        <path id="Path_320" data-name="Path 320" d="M1679.667,1739.835h0a.528.528,0,0,0,.139-.638c-.488-1.072-2.009-3.68-5.086-3.134a.441.441,0,0,0-.266.512v.008c.031.236.191.39.363.36,2.758-.479,4.051,1.82,4.446,2.718C1679.346,1739.851,1679.519,1739.927,1679.667,1739.835Z" transform="translate(-1674.448 -1735.988)" fill="#fff"/>
      </g>
      <g id="Group_1319" data-name="Group 1319" transform="translate(5.499 2.692)">
        <path id="Path_321" data-name="Path 321" d="M1675.206,1741.612h0a.529.529,0,0,0,.139-.638c-.487-1.071-2.009-3.68-5.086-3.134-.178.031-.3.268-.266.511v.008c.031.236.191.39.363.36,2.758-.478,4.051,1.82,4.445,2.718C1674.885,1741.629,1675.058,1741.7,1675.206,1741.612Z" transform="translate(-1669.987 -1737.765)" fill="#fff"/>
      </g>
    </g>
    <g id="Group_1324" data-name="Group 1324" transform="translate(339.996 460.935)">
      <path id="Path_322" data-name="Path 322" d="M770.7,1271.56l-18.593-16.96a1.408,1.408,0,0,1-.091-1.989h0a1.408,1.408,0,0,1,1.989-.091l18.594,16.96a1.409,1.409,0,0,1,.091,1.99h0A1.408,1.408,0,0,1,770.7,1271.56Z" transform="translate(-751.646 -1245.599)" fill="#1e5ab3"/>
      <path id="Path_323" data-name="Path 323" d="M760.87,1240.38l-5.963,5.162c-.735.636-.927,1.649-.4,2.126l18.218,16.618a1.8,1.8,0,0,0,1.965.235c.774-.337,1.608-1.148,1.844-3.045.467-3.754-4.275-9.132-5.173-13.469a.429.429,0,0,0-.13-.229l-8.383-7.647A1.523,1.523,0,0,0,760.87,1240.38Z" transform="translate(-752.841 -1239.866)" fill="#6890cc"/>
      <g id="Group_1321" data-name="Group 1321" transform="translate(14.124 9.069)">
        <path id="Path_324" data-name="Path 324" d="M778.141,1257.993h0a.53.53,0,0,1,.326-.566c1.081-.467,3.96-1.377,5.873,1.095a.441.441,0,0,1-.146.558l-.006.005a.352.352,0,0,1-.511.023c-1.722-2.208-4.224-1.374-5.119-.973C778.367,1258.22,778.189,1258.16,778.141,1257.993Z" transform="translate(-778.129 -1256.871)" fill="#fff"/>
      </g>
      <g id="Group_1322" data-name="Group 1322" transform="translate(15.337 11.54)">
        <path id="Path_325" data-name="Path 325" d="M780.415,1262.625h0a.528.528,0,0,1,.326-.565c1.081-.467,3.959-1.377,5.873,1.095a.441.441,0,0,1-.147.558l-.006.005a.352.352,0,0,1-.51.023c-1.721-2.207-4.224-1.373-5.12-.972C780.641,1262.854,780.463,1262.793,780.415,1262.625Z" transform="translate(-780.403 -1261.504)" fill="#fff"/>
      </g>
      <g id="Group_1323" data-name="Group 1323" transform="translate(16.463 13.84)">
        <path id="Path_326" data-name="Path 326" d="M782.526,1266.938h0a.528.528,0,0,1,.326-.566c1.08-.467,3.959-1.377,5.873,1.095a.441.441,0,0,1-.147.558l-.006,0a.352.352,0,0,1-.511.023c-1.721-2.208-4.224-1.374-5.119-.973C782.752,1267.166,782.574,1267.105,782.526,1266.938Z" transform="translate(-782.514 -1265.816)" fill="#fff"/>
      </g>
    </g>
  </g>
</svg>
