<svg xmlns="http://www.w3.org/2000/svg" width="670.184" height="290.474" viewBox="0 0 670.184 290.474">
  <g id="Group_1646" data-name="Group 1646" transform="translate(-496.934 -83.266)">
    <g id="Group_1311" data-name="Group 1311" transform="translate(897.347 356.089)">
      <g id="Group_1310" data-name="Group 1310">
        <path id="Path_313" data-name="Path 313" d="M1805.506,1060.93a8.825,8.825,0,1,1,8.825-8.826A8.836,8.836,0,0,1,1805.506,1060.93Zm0-15.412a6.587,6.587,0,1,0,6.587,6.586A6.594,6.594,0,0,0,1805.506,1045.518Z" transform="translate(-1796.68 -1043.279)" fill="#fff"/>
      </g>
    </g>
    <g id="Group_1313" data-name="Group 1313" transform="translate(951.178 83.266)">
      <g id="Group_1312" data-name="Group 1312">
        <path id="Path_314" data-name="Path 314" d="M1906.439,549.387a8.826,8.826,0,1,1,8.826-8.825A8.835,8.835,0,0,1,1906.439,549.387Zm0-15.412a6.587,6.587,0,1,0,6.587,6.587A6.595,6.595,0,0,0,1906.439,533.975Z" transform="translate(-1897.613 -531.736)" fill="#fff"/>
      </g>
    </g>
    <g id="Group_1330" data-name="Group 1330" transform="translate(1133.122 277.422)">
      <g id="Group_1312-2" data-name="Group 1312">
        <path id="Path_314-2" data-name="Path 314" d="M1914.611,565.733a17,17,0,1,1,17-17A17.017,17.017,0,0,1,1914.611,565.733Zm0-29.684a12.687,12.687,0,1,0,12.687,12.687A12.7,12.7,0,0,0,1914.611,536.048Z" transform="translate(-1897.613 -531.736)" fill="#fff"/>
      </g>
    </g>
    <g id="Group_1315" data-name="Group 1315" transform="translate(496.934 116.684)">
      <g id="Group_1314" data-name="Group 1314">
        <path id="Path_315" data-name="Path 315" d="M1054.5,611.577a8.591,8.591,0,1,1,8.591-8.591A8.6,8.6,0,0,1,1054.5,611.577Zm0-15a6.412,6.412,0,1,0,6.412,6.412A6.419,6.419,0,0,0,1054.5,596.575Z" transform="translate(-1045.905 -594.396)" fill="#fff"/>
      </g>
    </g>
  </g>
</svg>
