<svg id="Icons_Actions_ic-actions-thumbs-up" data-name="Icons / Actions / ic-actions-thumbs-up" xmlns="http://www.w3.org/2000/svg" width="67" height="67" viewBox="0 0 67 67">
  <rect id="Rectangle_163" data-name="Rectangle 163" width="67" height="67" fill="none"/>
  <g id="ic-actions-thumbs-up" transform="translate(9.561 9.938)">
    <path id="Path_39" data-name="Path 39" d="M40.03,19.277H26.072L22.75,8.92A7.845,7.845,0,0,0,15.3,3.56H13.845A7.845,7.845,0,0,0,6,11.4V42.839a7.845,7.845,0,0,0,7.872,7.845H33.079A7.789,7.789,0,0,0,37.8,49.12l6.951-5.248a7.817,7.817,0,0,0,3.127-6.281V27.122a7.845,7.845,0,0,0-7.845-7.845Z" transform="translate(0.002 -3.56)" fill="none" stroke="#2a6f33" stroke-linecap="round" stroke-linejoin="round" stroke-width="8"/>
    <line id="Line_51" data-name="Line 51" y2="26.353" transform="translate(0 16.806)" fill="none" stroke="#2a6f33" stroke-linecap="round" stroke-linejoin="bevel" stroke-width="8"/>
  </g>
</svg>
