<svg xmlns="http://www.w3.org/2000/svg" width="398" height="90.217" viewBox="0 0 398 90.217"><g transform="translate(-126.793 -331.069)"><path d="M353.382,351.5V362.19c0,2.966-.935,5.8-4.361,6.019h-8.729c-1.307,0-1.874-.691-1.874-1.686v-.932h3.277V349.418h1.247a1.359,1.359,0,0,1,1.37,1.273v14.9h4.018a2.179,2.179,0,0,0,2.366-2.339V349.418h.848c1.4,0,1.838.588,1.838,2.082" transform="translate(64.753 5.614)" fill="#3a3a3d"/><path d="M356.008,366.208a.609.609,0,0,0-.067.251v1.376a3.967,3.967,0,0,1-4.076,3.956c-1.28,0-2.152-.525-2.152-1.43v-.718a7.185,7.185,0,0,0,.743.06c3.406,0,3-2.058,3-6.141v-7.921h.838c1.407,0,1.838.592,1.838,2.088v5.676a3.008,3.008,0,0,0,1.409.281h1.655V366.3h-2.339a3.165,3.165,0,0,1-.845-.1" transform="translate(68.209 7.518)" fill="#316e33"/><rect width="4.049" height="2.619" transform="translate(427.08 371.206)" fill="#316e33"/><rect width="11.319" height="2.619" transform="translate(430.668 371.206)" fill="#316e33"/><rect width="4.049" height="2.619" transform="translate(441.516 371.206)" fill="#316e33"/><path d="M370.4,366.408h3.5v-9.6h.832c1.413,0,1.841.6,1.841,2.088v7.516h2.809c1.463,0,2.278-.657,2.372-2.338V356.8h.838c1.4,0,1.841.6,1.841,2.088,0,0,0,5.459.033,5.519a7.831,7.831,0,0,1-.184,1.276,5.428,5.428,0,0,0,2.8.812c1.9,0,2.432-1,2.5-2.429V356.8h.838c1.407,0,1.835.6,1.835,2.088v5.335a2.064,2.064,0,0,0,2.378,2.181h.712v2.617h-1.4a5.006,5.006,0,0,1-3.208-1.31,4.174,4.174,0,0,1-3.184,1.31c-3.175,0-4.363-1.059-4.523-1.186a4.106,4.106,0,0,1-2.958,1.186H370.4Zm8.745-14.306a1.709,1.709,0,0,1,1.738-1.7,1.7,1.7,0,1,1,0,3.4,1.71,1.71,0,0,1-1.738-1.7m1.955-3.654a1.737,1.737,0,1,1,1.772,1.7,1.716,1.716,0,0,1-1.772-1.7m2.092,3.654a1.735,1.735,0,1,1,1.768,1.7,1.71,1.71,0,0,1-1.768-1.7" transform="translate(74.538 4.798)" fill="#316e33"/><path d="M391.671,367.385h-2.652v-2.617h1.971c1.46,0,2.271-.657,2.365-2.338v-5.673h.845c1.393,0,1.84.592,1.84,2.088v2.526c0,2.957-.94,5.8-4.368,6.014m-.465-13.778a1.507,1.507,0,0,1,1.527-1.5,1.5,1.5,0,0,1,0,2.993,1.5,1.5,0,0,1-1.527-1.5m3.555,0a1.528,1.528,0,1,1,1.554,1.5,1.51,1.51,0,0,1-1.554-1.5" transform="translate(80.235 6.438)" fill="#316e33"/><path d="M415.492,366.91h-7.658c-.559,2.988-3.458,5.452-7.444,5.452-1.439,0-2.592-.337-2.592-1.435V369.68a8.315,8.315,0,0,0,1.557.131c2.686,0,5.459-.972,5.86-2.9-3.8-.127-8.913-1.032-8.913-6.427,0-4.237,2.305-6.817,5.917-6.817,3.4,0,5.736,2.548,5.736,6.352a40.628,40.628,0,0,0,.037,4.273h7.5Zm-9.961-2.618c0-4.554.242-8.232-3.585-8.232-1.9,0-3.15,1.557-3.15,3.988,0,3.866,2.929,4.243,6.735,4.243" transform="translate(82.464 6.914)" fill="#316e33"/><path d="M416.281,361.5a2.052,2.052,0,0,0,2.366,2.178h.721v2.62h-1.395a4.442,4.442,0,0,1-3.026-1.186,4.545,4.545,0,0,1-3.023,1.186h-1.407v-2.62h.718c1.46,0,2.275-.654,2.363-2.339v-5.669h.852c1.4,0,1.831.592,1.831,2.088Zm-5.045,8.2a1.506,1.506,0,0,1,1.529-1.5,1.5,1.5,0,0,1,0,2.993,1.507,1.507,0,0,1-1.529-1.5m3.555,0a1.524,1.524,0,1,1,1.554,1.5,1.508,1.508,0,0,1-1.554-1.5" transform="translate(86.814 7.527)" fill="#316e33"/><path d="M325.428,365.888c-3.433-.221-4.366-3.053-4.366-6.019v-2.523c0-1.5.44-2.084,1.84-2.084h.836v5.669c.1,1.687.912,2.335,2.374,2.335h10.209c1.464,0,2.275-.648,2.365-2.335v-5.669h.836c1.409,0,1.841.588,1.841,2.084v2.523c0,2.966-.93,5.8-4.361,6.019Z" transform="translate(59.442 7.402)" fill="#3a3a3d"/><path d="M327.68,366.349a1.5,1.5,0,0,1,1.524-1.494,1.493,1.493,0,1,1,0,2.987,1.5,1.5,0,0,1-1.524-1.493" transform="translate(61.467 10.338)" fill="#3a3a3d"/><path d="M436.043,360.02c0-3.8-2.344-6.355-5.742-6.355-3.608,0-5.92,2.583-5.92,6.82a5.636,5.636,0,0,0,1.25,3.807h-8.814v2.617h15.213c4.418-.688,4.013-6.889,4.013-6.889m-5.586,4.67c-2.063,0-3.436-1.249-3.436-4.218,0-2.583,1.327-4.306,3.228-4.306,1.934,0,3.473,1.1,3.473,4.306,0,2.556-1.276,4.218-3.265,4.218" transform="translate(88.741 6.914)" fill="#316e33"/><path d="M427.521,352.749a1.514,1.514,0,1,0,0-3.027,1.511,1.511,0,0,0-1.5,1.531,1.479,1.479,0,0,0,1.5,1.5" transform="translate(91.557 5.707)" fill="#316e33"/><path d="M330.281,384.546h-3.6c-2.263,0-5.592-.461-5.592-3.793,0-2.5,1.361-4.025,3.5-4.025,2,0,3.385,1.506,3.385,3.751V383h2.312Zm-5.865-6.4c-1.123,0-1.856.918-1.856,2.355,0,2.28,1.729,2.5,3.97,2.5,0-2.682.149-4.856-2.114-4.856m-1.787-3.548a.89.89,0,0,1,.905-.884.884.884,0,0,1,0,1.768.892.892,0,0,1-.905-.884m2.284,0a.9.9,0,1,1,.921.884.89.89,0,0,1-.921-.884m5.1,8.4h2.39v1.548h-2.39Zm2.116,0h2.39v1.548h-2.39Zm2.112,0h2.39v1.548h-2.39Zm2.122,0h2.39v1.548h-2.39Zm5.328-1.288a1.215,1.215,0,0,0,1.4,1.288h.417v1.548h-.827a2.623,2.623,0,0,1-1.783-.7,2.65,2.65,0,0,1-1.784.7h-.827V383h.419c.87,0,1.343-.387,1.4-1.379v-3.343h.491c.831,0,1.087.344,1.087,1.228Zm-2.982,4.836a.888.888,0,0,1,.9-.88.882.882,0,1,1,0,1.764.889.889,0,0,1-.9-.884m2.1,0a.9.9,0,1,1,.921.884.893.893,0,0,1-.921-.884M343.326,383h2.39v1.548h-2.39Zm2.114,0h2.39v1.548h-2.39Zm2.116,0h2.39v1.548h-2.39Zm2.116,0h2.39v1.548h-2.39ZM355,381.71a1.215,1.215,0,0,0,1.4,1.288h.422v1.548H356a2.638,2.638,0,0,1-1.787-.7,2.647,2.647,0,0,1-1.78.7h-.827V383h.422c.863,0,1.34-.387,1.4-1.379v-3.343h.5c.824,0,1.08.344,1.08,1.228Zm-1.873,4.836a.884.884,0,0,1,.9-.88.882.882,0,0,1,0,1.764.885.885,0,0,1-.9-.884m62.253-.495a.887.887,0,0,1,.9-.884.884.884,0,0,1,0,1.768.889.889,0,0,1-.9-.884M356.645,383h2.39v1.548h-2.39Zm2.113,0h2.39v1.548h-2.39Zm2.114,0h2.394v1.548h-2.394Zm2.116,0h2.393v1.548h-2.393Zm1.934,0h1.895v-9.544h.492c.832,0,1.085.347,1.085,1.232v5.37c.7-1.693,2.1-3.328,3.974-3.328,3.624,0,5.007,2.867,5.007,5.736,0,.884-.112,2.082-.74,2.082H364.922Zm3.585,0h7.23c-.09-1.635-.5-4.557-3.332-4.557-1.909,0-3.385,2.275-3.9,4.557m25.328,1.548h-6.146a.576.576,0,0,1-.145.016c-2.3,0-3.473-2.151-3.473-4.064,0-2.245,1.05-3.032,2.093-3.032h.624a3.278,3.278,0,0,0-1.3,2.7c0,1,.423,2.834,2.077,2.834h5.869c.866,0,1.343-.387,1.4-1.379v-3.343h.495c.827,0,1.087.344,1.087,1.228v1.491c0,1.747-.552,3.422-2.578,3.551m-5.129-8.131a.885.885,0,0,1,.9-.882.881.881,0,0,1,0,1.762.884.884,0,0,1-.9-.88m2.1,0a.9.9,0,1,1,.921.88.89.89,0,0,1-.921-.88m8.625,8.131c-.592,0-.993-.332-.993-1.107v-9.984h.735a.8.8,0,0,1,.81.755v10.337Zm4.324-.057a.407.407,0,0,0-.039.149v.808a2.342,2.342,0,0,1-2.408,2.332c-.751,0-1.271-.311-1.271-.842v-.424a3.214,3.214,0,0,0,.444.035c2,0,1.762-1.213,1.762-3.62v-4.674h.5c.824,0,1.083.353,1.083,1.234v3.346a1.786,1.786,0,0,0,.827.166h.976v1.548h-1.379a1.908,1.908,0,0,1-.495-.057m1.69-1.49h2.393v1.548h-2.393Zm2.118,0h2.39v1.548h-2.39Zm2.114,0h2.394v1.548h-2.394Zm2.113,0h2.393v1.548h-2.393Zm5.338-1.288a1.213,1.213,0,0,0,1.4,1.288h.419v1.548h-.827a2.613,2.613,0,0,1-1.78-.7,2.678,2.678,0,0,1-1.787.7h-.824V383h.417c.866,0,1.343-.387,1.4-1.379v-3.343h.495c.831,0,1.087.344,1.087,1.228ZM418.757,383h2.393v1.548h-2.393Zm2.121,0h2.394v1.548h-2.394Zm2.113,0h2.393v1.548h-2.393Zm2.112,0H427.5v1.548H425.1Zm2.121,0h2.39v1.548h-2.39Zm5.332-1.288a1.215,1.215,0,0,0,1.4,1.288h.419v1.548h-.827a2.62,2.62,0,0,1-1.783-.7,2.67,2.67,0,0,1-1.787.7h-.824V383h.419c.866,0,1.346-.387,1.4-1.379v-3.343h.5c.824,0,1.084.344,1.084,1.228Zm-2.888-5.33a.89.89,0,0,1,.9-.887.882.882,0,0,1,0,1.764.886.886,0,0,1-.9-.878m2.1,0a.9.9,0,1,1,.919.878.892.892,0,0,1-.919-.878M434.2,383h2.393v1.548H434.2Zm2.112,0H438.7v1.548h-2.393Zm2.121,0h2.39v1.548h-2.39Zm10.607,0h1.327v1.548H440.353V383h7.061c-.09-1.635-.878-4.688-3.325-4.688a3.031,3.031,0,0,0-2.7,1.158v-.643c0-1.05.808-2.1,3.038-2.1,3.362,0,4.432,3.292,4.611,6.27m-5.459-8.494a.832.832,0,0,1,.866-.868.885.885,0,0,1,.9.868.911.911,0,0,1-.9.9.856.856,0,0,1-.866-.9m6.6,8.494h2.394v1.548h-2.394Zm2.116,0h2.393v1.548h-2.393Zm2.118,0H456.8v1.548h-2.393Zm10.923-2.48c0,2.537-1.322,4.064-3.364,4.064a3.374,3.374,0,0,1-2.592-1.158,3.176,3.176,0,0,1-2.782,1.138.581.581,0,0,1-.145-.016h-.479V383h.609c1.614,0,1.895-.6,1.895-2.187,0-2.5,1.358-4.029,3.495-4.029,1.985,0,3.364,1.51,3.364,3.736m-1.488.272c0-1.651-.721-2.514-2.028-2.514-1.1,0-1.819.863-1.819,2.275,0,1.548.757,2.538,2.1,2.538,1.122,0,1.75-.953,1.75-2.3" transform="translate(59.45 12.969)" fill="#3a3a3d"/><path d="M137.067,349.281a4.291,4.291,0,0,0-3.053-1.033c-2.688,0-3.765,1.213-3.765,4.171v2.51H136.3v1.252c0,.944-.761,1.843-2.288,1.843h-3.808v14.395H128.95c-1.533,0-2.157-.987-2.157-2.466V352.017a6.755,6.755,0,0,1,6.732-7.042c2.462,0,3.721,1.391,3.721,2.468v1.838Z" transform="translate(0 4.255)" fill="#316e33"/><path d="M144.476,370.165c-4.3,0-7.148-3-7.148-8.11v-9.716h.923c1.345,0,2.075.8,2.075,2.339v7.189c0,3.568,1.8,5.45,4.34,5.45,2.724,0,4.149-1.532,4.149-5.3v-9.68h.8c1.425,0,2.155.767,2.155,2.339v7.652c0,5.105-2.652,7.836-7.3,7.836" transform="translate(3.223 6.508)" fill="#316e33"/><path d="M155.725,353.2h6.035v1c0,1.071-.734,1.766-2.312,1.766h-3.687v8.678c0,2.462,1,3.5,2.884,3.5a5.912,5.912,0,0,0,2.762-.458h.157v1.038c0,1.457-1.151,2.27-3.187,2.27-3.881,0-5.579-2.044-5.579-6.078v-11.37c0-1.952,1.273-3.917,2.577-3.917h.35Z" transform="translate(7.957 5.68)" fill="#316e33"/><path d="M169.445,370.165c-4.3,0-7.14-3-7.14-8.11v-9.716h.921c1.345,0,2.075.8,2.075,2.339v7.189c0,3.568,1.8,5.45,4.34,5.45,2.728,0,4.149-1.532,4.149-5.3v-9.68h.808c1.418,0,2.151.767,2.151,2.339v7.652c0,5.105-2.652,7.836-7.3,7.836" transform="translate(10.866 6.508)" fill="#316e33"/><path d="M186.464,356.279a4.246,4.246,0,0,0-2.685-.882c-2.306,0-3.2,1.156-3.2,4.883v9.795h-1.262c-1.08,0-1.7-.848-1.7-2v-8.021c0-4.845,2.347-7.417,5.729-7.417,2.378,0,3.268,1.032,3.268,2.227v1.418Z" transform="translate(15.554 6.598)" fill="#316e33"/><path d="M193.441,362.514h-4.307a5.224,5.224,0,0,0,5.571,4.955,7.263,7.263,0,0,0,5.3-1.8h.153v1.307c0,1.847-1.964,3.268-5.874,3.268-4.8,0-8.19-3.73-8.19-8.727,0-5.641,3.537-9.412,8.147-9.412,3.416,0,6.61,2.574,6.61,6.071,0,3.069-1.422,4.342-7.414,4.342m.5-7.764a4.865,4.865,0,0,0-4.8,4.69l-.035.733,3.956-.078c4.188-.073,4.916-.465,4.916-1.766,0-1.888-1.3-3.578-4.032-3.578" transform="translate(18.146 6.435)" fill="#316e33"/><path d="M215.987,370.241c-3.567,0-6.681-2.082-6.681-5.2,0-3.756,2.918-5.8,8.144-5.8h2.342v-.8c0-2.574-1.267-3.61-4.11-3.61a6.636,6.636,0,0,0-5.54,2.385h-.18v-1.427c0-1.612,2.105-3.688,6.026-3.688,4.423,0,6.8,2.309,6.8,6.572v5.456c0,3.534-1.913,6.113-6.8,6.113m3.844-8.494H217.45c-3.5,0-5.108,1.068-5.108,2.993,0,1.542,1.536,2.728,3.765,2.728,2.646,0,3.723-1.036,3.723-3.573Z" transform="translate(25.247 6.435)" fill="#3a3a3d"/><path d="M231.422,371.778c-4.88,0-7.761-3.576-7.761-8.683V347.072h1.424c.771,0,1.648.576,1.648,2.036v7.985a6.013,6.013,0,0,1,5.57-3.454c3.995,0,7.338,3.116,7.338,8.759,0,5.344-3.268,9.381-8.219,9.381m.074-15.371c-2.8,0-4.764,2.535-4.764,6.338,0,4.38,2.037,6.227,5.07,6.227,2.918,0,4.8-2.458,4.8-6.227,0-4.722-2.261-6.338-5.106-6.338" transform="translate(29.639 4.897)" fill="#3a3a3d"/><path d="M206.505,371.739c-3.32,0-5.088-1.587-5.088-4.981V347.192h.888a1.946,1.946,0,0,1,1.988,2.215v17.02c0,2.1,1.072,2.692,2.659,2.692h1.84v.963c0,1.14-.772,1.659-2.287,1.659" transform="translate(22.833 4.933)" fill="#3a3a3d"/><path d="M137.388,384.618a.844.844,0,0,1-.858-.963v-3.394c0-1.609-.613-2.237-1.656-2.237-1.271,0-1.8.649-1.8,2.2v4.4h-.44c-.64,0-.875-.334-.875-.963v-3.394c0-1.388-.628-2.237-1.724-2.237-1.138,0-1.725.679-1.725,2.237v4.357h-.426a.846.846,0,0,1-.9-.963v-3.564a3.077,3.077,0,0,1,3.129-3.3,2.528,2.528,0,0,1,2.383,1.388,2.839,2.839,0,0,1,2.415-1.388c1.912,0,2.923,1.149,2.923,3.428v4.4Z" transform="translate(0.061 13.991)" fill="#3a3a3d"/><path d="M137.973,384.754h-.56a.95.95,0,0,1-.966-1.072v-3.4c0-1.448-.495-2.122-1.55-2.122-1.213,0-1.687.582-1.687,2.092v4.5h-.546c-.658,0-.983-.354-.983-1.072v-3.4c0-1.352-.589-2.122-1.618-2.122-1.1,0-1.623.674-1.623,2.122v4.472h-.525a.956.956,0,0,1-1-1.072v-3.565a3.191,3.191,0,0,1,3.235-3.4,2.62,2.62,0,0,1,2.39,1.292,2.93,2.93,0,0,1,2.411-1.292c1.98,0,3.026,1.225,3.026,3.54Zm-3.077-6.808c1.188,0,1.762.767,1.762,2.336v3.4c0,.538.281.858.755.858h.353v-4.288c0-2.207-.951-3.326-2.818-3.326a2.726,2.726,0,0,0-2.326,1.335l-.1.157-.091-.163a2.423,2.423,0,0,0-2.287-1.328,2.986,2.986,0,0,0-3.023,3.19v3.565c0,.55.283.858.79.858h.32v-4.257c0-1.57.6-2.336,1.828-2.336,1.141,0,1.828.875,1.828,2.336v3.4c0,.61.223.858.773.858H133v-4.288c0-1.615.567-2.306,1.895-2.306" transform="translate(0.036 13.966)" fill="#3a3a3d"/><path d="M140.136,381.375h-1.9a2.3,2.3,0,0,0,2.453,2.181,3.192,3.192,0,0,0,2.33-.8h.069v.577c0,.811-.859,1.437-2.588,1.437a3.6,3.6,0,0,1-3.6-3.838c0-2.484,1.554-4.144,3.581-4.144a2.826,2.826,0,0,1,2.91,2.677c0,1.349-.628,1.907-3.26,1.907m.214-3.413a2.137,2.137,0,0,0-2.112,2.057l-.016.327,1.742-.037c1.838-.033,2.163-.2,2.163-.774a1.58,1.58,0,0,0-1.777-1.572" transform="translate(3.094 13.99)" fill="#3a3a3d"/><path d="M140.526,384.9a3.7,3.7,0,0,1-3.7-3.941c0-2.462,1.554-4.248,3.687-4.248a2.906,2.906,0,0,1,3.014,2.776c0,1.527-.818,2.015-3.364,2.015h-1.777a2.184,2.184,0,0,0,2.332,1.971,3.121,3.121,0,0,0,2.258-.767l.033-.027h.214v.679c0,.743-.709,1.542-2.694,1.542m-.016-7.978c-2.015,0-3.475,1.7-3.475,4.037a3.5,3.5,0,0,0,3.491,3.73c1.533,0,2.483-.509,2.483-1.331v-.4a3.419,3.419,0,0,1-2.293.725,2.421,2.421,0,0,1-2.558-2.279l-.007-.114h2.01c2.68,0,3.157-.58,3.157-1.8a2.739,2.739,0,0,0-2.807-2.565m-2.374,3.555.021-.437a2.252,2.252,0,0,1,2.218-2.161,1.687,1.687,0,0,1,1.883,1.678c0,.682-.426.848-2.266.882Zm2.238-2.387a2.04,2.04,0,0,0-2.006,1.962l-.007.205,1.623-.03c1.881-.033,2.058-.212,2.058-.67a1.47,1.47,0,0,0-1.669-1.467" transform="translate(3.069 13.966)" fill="#3a3a3d"/><path d="M146.813,385.45a3.736,3.736,0,0,1-3.516-3.887c0-2.637,1.23-4.1,3.362-4.1a2.458,2.458,0,0,1,2.3,1.473V374.58h.357c.64,0,.981.336.981,1.066v5.579c0,2.957-1.084,4.225-3.482,4.225m-.121-6.762c-1.331,0-2.077,1.013-2.077,2.758a2.511,2.511,0,0,0,2.312,2.77c1.391,0,2.031-.746,2.031-2.622,0-1.4-.422-2.906-2.266-2.906" transform="translate(5.05 13.313)" fill="#3a3a3d"/><path d="M146.839,385.58a3.828,3.828,0,0,1-3.628-3.992c0-2.667,1.271-4.2,3.474-4.2a2.517,2.517,0,0,1,2.193,1.181V374.5h.462c.709,0,1.087.4,1.087,1.17v5.58c0,2.993-1.107,4.329-3.588,4.329m-.154-7.978c-2.1,0-3.256,1.416-3.256,3.986a3.613,3.613,0,0,0,3.41,3.781c2.365,0,3.373-1.23,3.373-4.118v-5.58c0-.654-.278-.959-.872-.959h-.248v4.7l-.2-.4a2.368,2.368,0,0,0-2.206-1.409m.268,6.744a2.618,2.618,0,0,1-2.416-2.876c0-1.819.8-2.86,2.181-2.86,1.551,0,2.374,1.041,2.374,3.012,0,1.886-.661,2.724-2.139,2.724m-.235-5.528c-1.271,0-1.971.942-1.971,2.652a2.415,2.415,0,0,0,2.206,2.664c1.367,0,1.925-.726,1.925-2.513,0-1.862-.726-2.8-2.16-2.8" transform="translate(5.024 13.289)" fill="#3a3a3d"/><path d="M151.4,376.5a.879.879,0,0,1-.875-.875.879.879,0,1,1,1.757,0,.872.872,0,0,1-.882.875m1.621,8.826a2.022,2.022,0,0,1-2.3-2.278v-5.48h.393a.936.936,0,0,1,.908,1.028v4.261c0,.963.474,1.271,1.2,1.271h.559v.422a.712.712,0,0,1-.76.776" transform="translate(7.263 13.353)" fill="#3a3a3d"/><path d="M153.05,385.454a2.125,2.125,0,0,1-2.4-2.383v-5.583h.5a1.044,1.044,0,0,1,1.017,1.135v4.26c0,.812.329,1.16,1.089,1.16h.663v.53a.817.817,0,0,1-.866.882m-2.19-7.755v5.371a1.919,1.919,0,0,0,2.19,2.174.612.612,0,0,0,.658-.673v-.316h-.456c-.875,0-1.3-.451-1.3-1.374v-4.26a.838.838,0,0,0-.8-.923Zm.571-1.066a.987.987,0,0,1-.985-.986,1.016,1.016,0,0,1,.985-1.017,1,1,0,0,1,.986,1.017.975.975,0,0,1-.986.986m0-1.8a.813.813,0,0,0-.773.81.774.774,0,0,0,1.548,0,.793.793,0,0,0-.774-.81" transform="translate(7.237 13.329)" fill="#3a3a3d"/><path d="M159.762,379.023a2.369,2.369,0,0,0-1.96-1.013,2.485,2.485,0,0,0-2.535,2.655,2.609,2.609,0,0,0,2.57,2.876,2.436,2.436,0,0,0,1.925-.679h.067v.559c0,.491-.573,1.352-2.229,1.352a4,4,0,0,1,.132-7.978c1.153,0,2.1.576,2.1,1.672v.558Z" transform="translate(8.303 13.991)" fill="#3a3a3d"/><path d="M157.624,384.9a4.105,4.105,0,0,1,.136-8.192c1.319,0,2.2.716,2.2,1.78v.665h-.242l-.027-.06a2.256,2.256,0,0,0-1.868-.955,2.385,2.385,0,0,0-2.429,2.551,2.508,2.508,0,0,0,2.464,2.767,2.408,2.408,0,0,0,1.844-.635l.03-.042h.227v.663c0,.564-.635,1.457-2.339,1.457m.136-7.978a3.895,3.895,0,0,0-.136,7.771c1.548,0,2.127-.769,2.127-1.25v-.362a2.84,2.84,0,0,1-4.566-2.393,2.585,2.585,0,0,1,2.641-2.761,2.66,2.66,0,0,1,1.925.857v-.3c0-1.154-1.075-1.566-1.992-1.566" transform="translate(8.278 13.965)" fill="#3a3a3d"/><path d="M162.821,384.772c-1.572,0-2.938-.912-2.938-2.282,0-1.653,1.285-2.551,3.581-2.551H164.5v-.355c0-1.135-.562-1.591-1.807-1.591a2.916,2.916,0,0,0-2.438,1.047h-.085v-.624c0-.709.932-1.623,2.652-1.623,1.943,0,2.991,1.013,2.991,2.888v2.4c0,1.557-.842,2.689-2.991,2.689m1.693-3.736h-1.05c-1.538,0-2.248.474-2.248,1.322,0,.673.679,1.195,1.66,1.195,1.161,0,1.638-.456,1.638-1.572Z" transform="translate(10.125 13.991)" fill="#3a3a3d"/><path d="M162.848,384.9c-1.738,0-3.048-1.027-3.048-2.383,0-1.715,1.31-2.659,3.691-2.659h.926v-.251c0-1.053-.495-1.485-1.7-1.485a2.809,2.809,0,0,0-2.348,1.008l-.027.042h-.247v-.733c0-.829,1.053-1.732,2.758-1.732a2.748,2.748,0,0,1,3.093,3v2.4c0,1.8-1.1,2.795-3.093,2.795m.643-4.831c-2.245,0-3.479.866-3.479,2.447,0,1.239,1.218,2.172,2.837,2.172,2.386,0,2.888-1.4,2.888-2.583v-2.4c0-1.822-1-2.782-2.888-2.782-1.663,0-2.551.882-2.551,1.515v.428a3.111,3.111,0,0,1,2.415-.956c1.327,0,1.916.521,1.916,1.7v.462Zm-.592,3.615c-1.023,0-1.762-.55-1.762-1.307,0-.944.79-1.421,2.353-1.421h1.152v1.05c0,1.177-.521,1.678-1.743,1.678m.592-2.521c-1.421,0-2.146.411-2.146,1.213,0,.637.652,1.1,1.554,1.1,1.1,0,1.533-.413,1.533-1.469v-.842Z" transform="translate(10.099 13.965)" fill="#3a3a3d"/><path d="M168.659,385.348a2.038,2.038,0,0,1-2.332-2.28v-8.486h.4a.891.891,0,0,1,.914,1.015v7.317c0,.962.492,1.234,1.213,1.234h.845v.44c0,.525-.354.76-1.045.76" transform="translate(12.097 13.314)" fill="#3a3a3d"/><path d="M168.682,385.478a2.138,2.138,0,0,1-2.438-2.387V374.5h.512a.991.991,0,0,1,1.017,1.119v7.321c0,.788.336,1.126,1.114,1.126h.949v.546c0,.573-.385.866-1.154.866m-2.228-10.767v8.379a1.935,1.935,0,0,0,2.228,2.176c.836,0,.947-.35.947-.654v-.332h-.742c-.905,0-1.322-.428-1.322-1.34v-7.321a.8.8,0,0,0-.81-.908Z" transform="translate(12.071 13.289)" fill="#3a3a3d"/><path d="M175.5,385.348a2.04,2.04,0,0,1-2.332-2.28v-8.486h.407a.893.893,0,0,1,.914,1.015v7.317c0,.962.488,1.234,1.218,1.234h.845v.44c0,.525-.359.76-1.053.76" transform="translate(14.19 13.314)" fill="#3a3a3d"/><path d="M175.527,385.478a2.141,2.141,0,0,1-2.441-2.387V374.5h.513a.993.993,0,0,1,1.02,1.119v7.321c0,.788.332,1.126,1.11,1.126h.953v.546c0,.573-.389.866-1.156.866M173.3,374.712v8.379a1.936,1.936,0,0,0,2.227,2.176c.836,0,.944-.35.944-.654v-.332h-.742c-.905,0-1.322-.428-1.322-1.34v-7.321c0-.567-.3-.908-.808-.908Z" transform="translate(14.165 13.289)" fill="#3a3a3d"/><path d="M179.488,384.772c-1.576,0-2.942-.912-2.942-2.282,0-1.653,1.285-2.551,3.585-2.551h1.032v-.355c0-1.135-.559-1.591-1.807-1.591a2.919,2.919,0,0,0-2.438,1.047h-.085v-.624c0-.709.93-1.623,2.656-1.623,1.943,0,2.993,1.013,2.993,2.888v2.4c0,1.557-.849,2.689-2.993,2.689m1.686-3.736h-1.043c-1.536,0-2.249.474-2.249,1.322,0,.673.679,1.195,1.657,1.195,1.165,0,1.635-.456,1.635-1.572Z" transform="translate(15.223 13.991)" fill="#3a3a3d"/><path d="M179.514,384.9c-1.741,0-3.051-1.027-3.051-2.383,0-1.715,1.31-2.659,3.691-2.659h.93v-.251c0-1.053-.5-1.485-1.706-1.485a2.808,2.808,0,0,0-2.347,1.008l-.034.042h-.244v-.733c0-.829,1.053-1.732,2.761-1.732a2.754,2.754,0,0,1,3.1,3v2.4c0,1.8-1.1,2.795-3.1,2.795m.64-4.831c-2.245,0-3.477.866-3.477,2.447,0,1.239,1.216,2.172,2.837,2.172,2.387,0,2.885-1.4,2.885-2.583v-2.4c0-1.822-1-2.782-2.885-2.782-1.665,0-2.549.882-2.549,1.515v.428a3.1,3.1,0,0,1,2.413-.956c1.326,0,1.916.521,1.916,1.7v.462Zm-.592,3.615c-1.016,0-1.762-.55-1.762-1.307,0-.944.793-1.421,2.353-1.421h1.156v1.05c0,1.177-.525,1.678-1.747,1.678m.592-2.521c-1.421,0-2.137.411-2.137,1.213,0,.637.649,1.1,1.545,1.1,1.1,0,1.533-.413,1.533-1.469v-.842Z" transform="translate(15.198 13.965)" fill="#3a3a3d"/><path d="M186.273,385.45c-2.142,0-3.415-1.572-3.415-3.824V374.58h.631c.334,0,.724.257.724.9V379a2.647,2.647,0,0,1,2.45-1.528c1.763,0,3.226,1.371,3.226,3.861,0,2.347-1.43,4.122-3.615,4.122m.037-6.762c-1.234,0-2.1,1.114-2.1,2.788,0,1.932.9,2.74,2.231,2.74,1.285,0,2.114-1.084,2.114-2.74,0-2.079-1-2.788-2.248-2.788" transform="translate(17.155 13.313)" fill="#3a3a3d"/><path d="M186.3,385.58c-2.137,0-3.516-1.538-3.516-3.931V374.5h.731a.885.885,0,0,1,.832,1v3.108a2.794,2.794,0,0,1,2.342-1.222c1.663,0,3.334,1.229,3.334,3.962,0,2.492-1.529,4.23-3.723,4.23m-3.3-10.868v6.937c0,2.259,1.294,3.719,3.3,3.719,2.07,0,3.516-1.649,3.516-4.018,0-2.59-1.566-3.748-3.127-3.748a2.545,2.545,0,0,0-2.351,1.464l-.205.447V375.5c0-.582-.334-.79-.618-.79Zm3.474,9.634c-1.5,0-2.336-1.011-2.336-2.846,0-1.7.905-2.89,2.2-2.89,1.071,0,2.351.5,2.351,2.89,0,1.727-.87,2.846-2.218,2.846m-.133-5.528c-1.188,0-1.989,1.081-1.989,2.682,0,1.724.73,2.634,2.122,2.634,1.221,0,2.013-1.032,2.013-2.634,0-1.75-.746-2.682-2.146-2.682" transform="translate(17.131 13.289)" fill="#3a3a3d"/><path d="M193.228,384.768a3.581,3.581,0,0,1-3.564-3.853c0-2.556,1.388-4.107,3.564-4.107,2.033,0,3.452,1.536,3.452,3.82,0,2.583-1.366,4.14-3.452,4.14m-.2-6.726c-1.238,0-2.046.993-2.046,2.6,0,1.759.863,2.872,2.366,2.872,1.3,0,1.994-1.08,1.994-2.582,0-1.913-.794-2.891-2.314-2.891" transform="translate(19.237 13.995)" fill="#3a3a3d"/><path d="M193.252,384.9a3.7,3.7,0,0,1-3.666-3.958c0-2.6,1.4-4.212,3.666-4.212,2.1,0,3.557,1.614,3.557,3.924,0,2.62-1.361,4.246-3.557,4.246m0-7.96c-2.133,0-3.458,1.533-3.458,4a3.5,3.5,0,0,0,3.458,3.751c2.065,0,3.347-1.548,3.347-4.038,0-2.223-1.346-3.714-3.347-3.714m.121,6.709c-1.521,0-2.468-1.139-2.468-2.976,0-1.647.841-2.709,2.148-2.709,1.58,0,2.423,1.032,2.423,3,0,1.66-.808,2.689-2.1,2.689m-.32-5.475c-1.195,0-1.941.953-1.941,2.5,0,1.733.845,2.767,2.261,2.767,1.164,0,1.888-.951,1.888-2.48,0-1.849-.739-2.786-2.208-2.786" transform="translate(19.213 13.97)" fill="#3a3a3d"/><path d="M200.617,378.514a1.868,1.868,0,0,0-1.183-.384c-1.016,0-1.4.508-1.4,2.143v4.308h-.562c-.473,0-.742-.368-.742-.878v-3.53c0-2.131,1.029-3.265,2.519-3.265,1.047,0,1.437.458,1.437.981v.624Z" transform="translate(21.399 14.026)" fill="#3a3a3d"/><path d="M198.159,384.715H197.5a.873.873,0,0,1-.845-.983V380.2c0-2.083,1-3.368,2.622-3.368,1.391,0,1.541.76,1.541,1.087v.73H200.6l-.027-.03a1.733,1.733,0,0,0-1.11-.359c-.859,0-1.3.313-1.3,2.04Zm1.114-7.677c-1.508,0-2.411,1.183-2.411,3.16v3.533c0,.371.166.773.633.773h.452V380.3c0-1.662.4-2.252,1.512-2.252a1.988,1.988,0,0,1,1.137.332v-.461c0-.564-.468-.879-1.324-.879" transform="translate(21.375 14.002)" fill="#3a3a3d"/><path d="M203.317,384.772c-1.566,0-2.94-.912-2.94-2.282,0-1.653,1.289-2.551,3.585-2.551h1.029v-.355c0-1.135-.552-1.591-1.8-1.591a2.909,2.909,0,0,0-2.434,1.047h-.085v-.624c0-.709.93-1.623,2.65-1.623,1.946,0,2.993,1.013,2.993,2.888v2.4c0,1.557-.845,2.689-2.993,2.689m1.693-3.736h-1.047c-1.538,0-2.248.474-2.248,1.322,0,.673.675,1.195,1.653,1.195,1.168,0,1.642-.456,1.642-1.572Z" transform="translate(22.515 13.991)" fill="#3a3a3d"/><path d="M203.344,384.9c-1.738,0-3.048-1.027-3.048-2.383,0-1.715,1.31-2.659,3.691-2.659h.923v-.251c0-1.053-.488-1.485-1.7-1.485a2.814,2.814,0,0,0-2.351,1.008l-.033.042h-.242v-.733c0-.829,1.057-1.732,2.758-1.732a2.753,2.753,0,0,1,3.1,3v2.4c0,1.8-1.1,2.795-3.1,2.795m.643-4.831c-2.238,0-3.473.866-3.473,2.447,0,1.239,1.212,2.172,2.83,2.172,2.387,0,2.885-1.4,2.885-2.583v-2.4c0-1.822-1-2.782-2.885-2.782-1.666,0-2.551.882-2.551,1.515v.428a3.113,3.113,0,0,1,2.417-.956c1.322,0,1.911.521,1.911,1.7v.462Zm-.594,3.615c-1.02,0-1.757-.55-1.757-1.307,0-.944.79-1.421,2.351-1.421h1.149v1.05c0,1.177-.518,1.678-1.743,1.678m.594-2.521c-1.421,0-2.139.411-2.139,1.213,0,.637.652,1.1,1.545,1.1,1.107,0,1.536-.413,1.536-1.469v-.842Z" transform="translate(22.49 13.965)" fill="#3a3a3d"/><path d="M207.948,377.277H210.6v.441c0,.47-.32.774-1.015.774h-1.623v3.824c0,1.083.438,1.538,1.268,1.538a2.548,2.548,0,0,0,1.218-.205h.069v.458c0,.642-.509,1-1.4,1-1.711,0-2.454-.9-2.454-2.668v-5.006c0-.863.559-1.727,1.135-1.727h.148Z" transform="translate(24.439 13.658)" fill="#3a3a3d"/><path d="M209.143,385.234c-1.723,0-2.558-.905-2.558-2.774v-5c0-.942.6-1.832,1.239-1.832h.257V377.2h2.652v.546c0,.558-.4.882-1.117.882H208.1v3.714c0,.99.359,1.433,1.162,1.433a2.613,2.613,0,0,0,1.168-.187l.021-.014h.205v.56c0,.7-.552,1.1-1.508,1.1m-1.319-9.4c-.507,0-1.029.815-1.029,1.621v5c0,1.747.746,2.562,2.348,2.562.479,0,1.294-.115,1.294-.891v-.313a3.109,3.109,0,0,1-1.179.166c-.921,0-1.37-.537-1.37-1.644v-3.926h1.729c.413,0,.908-.118.908-.67v-.334h-2.652v-1.572Z" transform="translate(24.415 13.633)" fill="#3a3a3d"/><path d="M214.194,384.768a3.581,3.581,0,0,1-3.569-3.853c0-2.556,1.388-4.107,3.569-4.107,2.031,0,3.449,1.536,3.449,3.82,0,2.583-1.373,4.14-3.449,4.14m-.205-6.726c-1.237,0-2.049.993-2.049,2.6,0,1.759.863,2.872,2.366,2.872,1.306,0,2-1.08,2-2.582,0-1.913-.8-2.891-2.318-2.891" transform="translate(25.651 13.995)" fill="#3a3a3d"/><path d="M214.219,384.9a3.7,3.7,0,0,1-3.675-3.958c0-2.6,1.409-4.212,3.675-4.212,2.086,0,3.548,1.614,3.548,3.924,0,2.62-1.357,4.246-3.548,4.246m0-7.96c-2.139,0-3.463,1.533-3.463,4a3.5,3.5,0,0,0,3.463,3.751c2.061,0,3.343-1.548,3.343-4.038,0-2.223-1.345-3.714-3.343-3.714m.112,6.709c-1.521,0-2.466-1.139-2.466-2.976,0-1.647.842-2.709,2.148-2.709,1.584,0,2.42,1.032,2.42,3,0,1.66-.8,2.689-2.1,2.689m-.317-5.475c-1.2,0-1.939.953-1.939,2.5,0,1.733.841,2.767,2.257,2.767,1.168,0,1.892-.951,1.892-2.48,0-1.849-.743-2.786-2.21-2.786" transform="translate(25.626 13.97)" fill="#3a3a3d"/><path d="M221.575,378.514a1.864,1.864,0,0,0-1.182-.384c-1.017,0-1.4.508-1.4,2.143v4.308h-.562c-.474,0-.739-.368-.739-.878v-3.53c0-2.131,1.025-3.265,2.517-3.265,1.05,0,1.433.458,1.433.981v.624Z" transform="translate(27.813 14.026)" fill="#3a3a3d"/><path d="M219.123,384.715h-.667a.875.875,0,0,1-.848-.983V380.2c0-2.083,1-3.368,2.625-3.368,1.391,0,1.545.76,1.545,1.087v.73h-.217l-.027-.03a1.752,1.752,0,0,0-1.114-.359c-.859,0-1.3.313-1.3,2.04Zm1.11-7.677c-1.508,0-2.413,1.183-2.413,3.16v3.533c0,.371.166.773.636.773h.456V380.3c0-1.662.393-2.252,1.508-2.252a2.01,2.01,0,0,1,1.141.332v-.461c0-.564-.471-.879-1.328-.879" transform="translate(27.787 14.002)" fill="#3a3a3d"/><path d="M222.724,376.5a.883.883,0,0,1-.882-.875.915.915,0,0,1,.882-.914.9.9,0,0,1,.878.914.869.869,0,0,1-.878.875m1.623,8.826a2.021,2.021,0,0,1-2.3-2.278v-5.48h.384a.939.939,0,0,1,.917,1.028v4.261c0,.963.474,1.271,1.2,1.271h.559v.422a.714.714,0,0,1-.757.776" transform="translate(29.083 13.353)" fill="#3a3a3d"/><path d="M224.368,385.454a2.126,2.126,0,0,1-2.4-2.383v-5.583h.495a1.047,1.047,0,0,1,1.023,1.135v4.26c0,.812.323,1.16,1.089,1.16h.663v.53a.817.817,0,0,1-.866.882m-2.193-7.755v5.371a1.921,1.921,0,0,0,2.193,2.174.61.61,0,0,0,.656-.673v-.316h-.453c-.875,0-1.3-.451-1.3-1.374v-4.26a.84.84,0,0,0-.808-.923Zm.573-1.066a.986.986,0,0,1-.987-.986,1.016,1.016,0,0,1,.987-1.017,1,1,0,0,1,.983,1.017.975.975,0,0,1-.983.986m0-1.8a.816.816,0,0,0-.776.81.774.774,0,0,0,.776.772.766.766,0,0,0,.772-.772.793.793,0,0,0-.772-.81" transform="translate(29.058 13.329)" fill="#3a3a3d"/><path d="M228.473,381.375h-1.892a2.3,2.3,0,0,0,2.447,2.181,3.178,3.178,0,0,0,2.332-.8h.069v.577c0,.811-.859,1.437-2.586,1.437a3.6,3.6,0,0,1-3.6-3.838c0-2.484,1.554-4.144,3.585-4.144a2.821,2.821,0,0,1,2.906,2.677c0,1.349-.626,1.907-3.262,1.907m.221-3.413a2.134,2.134,0,0,0-2.113,2.057l-.018.327,1.745-.037c1.838-.033,2.158-.2,2.158-.774a1.575,1.575,0,0,0-1.771-1.572" transform="translate(30.124 13.99)" fill="#3a3a3d"/><path d="M228.869,384.9a3.7,3.7,0,0,1-3.705-3.941c0-2.462,1.552-4.248,3.691-4.248a2.9,2.9,0,0,1,3.012,2.776c0,1.527-.819,2.015-3.368,2.015h-1.775a2.181,2.181,0,0,0,2.33,1.971,3.124,3.124,0,0,0,2.261-.767l.035-.027h.215v.679c0,.743-.709,1.542-2.7,1.542m-.014-7.978c-2.016,0-3.479,1.7-3.479,4.037a3.5,3.5,0,0,0,3.493,3.73c1.531,0,2.484-.509,2.484-1.331v-.4a3.432,3.432,0,0,1-2.3.725,2.417,2.417,0,0,1-2.553-2.279l-.012-.114h2.01c2.685,0,3.157-.58,3.157-1.8a2.733,2.733,0,0,0-2.8-2.565m-2.378,3.555.023-.437a2.252,2.252,0,0,1,2.219-2.161,1.684,1.684,0,0,1,1.879,1.678c0,.682-.426.848-2.266.882Zm2.242-2.387a2.038,2.038,0,0,0-2.007,1.962l-.009.205,1.627-.03c1.879-.033,2.057-.212,2.057-.67a1.469,1.469,0,0,0-1.668-1.467" transform="translate(30.099 13.966)" fill="#3a3a3d"/><path d="M234.092,384.772c-1.285,0-2.314-.609-2.314-1.538v-.555h.064a3.187,3.187,0,0,0,2.287.859c1.128,0,1.632-.355,1.632-1.117,0-.624-.265-.91-2.026-1.285-1.435-.3-2.112-.776-2.112-1.925,0-1.252,1.135-2.417,3.042-2.417,1.128,0,2.248.508,2.248,1.452v.573h-.065a2.9,2.9,0,0,0-2.083-.794c-1.3,0-1.822.44-1.822,1.087,0,.555.283.742,1.892,1.08,1.523.338,2.266,1.062,2.266,2.094,0,1.625-1.252,2.487-3.009,2.487" transform="translate(32.076 13.991)" fill="#3a3a3d"/><path d="M234.118,384.9c-1.405,0-2.423-.695-2.423-1.646v-.663h.221l.033.037a3.043,3.043,0,0,0,2.206.827c1.358,0,1.531-.541,1.531-1.011,0-.537-.184-.808-1.943-1.183-1.319-.274-2.2-.727-2.2-2.028,0-1.638,1.623-2.522,3.15-2.522,1.169,0,2.357.534,2.357,1.557v.682h-.223l-.034-.039a2.777,2.777,0,0,0-2-.754c-.782,0-1.717.166-1.717.974,0,.44.148.631,1.807.981,1.943.431,2.351,1.43,2.351,2.2,0,1.6-1.195,2.592-3.115,2.592M231.9,382.89v.368c0,.831.936,1.437,2.215,1.437,1.79,0,2.9-.917,2.9-2.383,0-1-.734-1.672-2.178-1.992-1.533-.323-1.98-.516-1.98-1.186,0-.541.338-1.19,1.932-1.19a3.163,3.163,0,0,1,2.043.709v-.383c0-.884-1.077-1.345-2.143-1.345-1.424,0-2.936.808-2.936,2.31,0,1.029.529,1.51,2.028,1.823,1.681.357,2.112.64,2.112,1.388,0,.833-.552,1.218-1.741,1.218a3.411,3.411,0,0,1-2.252-.776" transform="translate(32.051 13.966)" fill="#3a3a3d"/><path d="M265.095,351.915a12.015,12.015,0,1,1,0,16.992,12.025,12.025,0,0,1,0-16.992" transform="translate(41.242 5.303)" fill="#2a6f33"/><path d="M321.258,344.283a45.119,45.119,0,1,0-.023,63.789,44.988,44.988,0,0,0,.023-63.789m-63.793,0a9.114,9.114,0,1,1,0,12.89,9.111,9.111,0,0,1,0-12.89m50.842,50.851a26.806,26.806,0,1,1-.005-37.918,26.668,26.668,0,0,1,.005,37.918" transform="translate(35.935)" fill="#669930"/></g></svg>